<?xml version="1.0" encoding="UTF-8" standalone="no"?>
<svg
   xmlns:dc="http://purl.org/dc/elements/1.1/"
   xmlns:cc="http://creativecommons.org/ns#"
   xmlns:rdf="http://www.w3.org/1999/02/22-rdf-syntax-ns#"
   xmlns:svg="http://www.w3.org/2000/svg"
   xmlns="http://www.w3.org/2000/svg"
   xmlns:sodipodi="http://sodipodi.sourceforge.net/DTD/sodipodi-0.dtd"
   xmlns:inkscape="http://www.inkscape.org/namespaces/inkscape"
   version="1.1"
   width="63.805088"
   height="62.291218"
   viewBox="0 0 63.805088 62.291218"
   id="svg4"
   sodipodi:docname="github.svg"
   inkscape:version="0.92.2 2405546, 2018-03-11">
  <metadata
     id="metadata10">
    <rdf:RDF>
      <cc:Work
         rdf:about="">
        <dc:format>image/svg+xml</dc:format>
        <dc:type
           rdf:resource="http://purl.org/dc/dcmitype/StillImage" />
        <dc:title></dc:title>
      </cc:Work>
    </rdf:RDF>
  </metadata>
  <defs
     id="defs8" />
  <sodipodi:namedview
     pagecolor="#ffffff"
     bordercolor="#666666"
     borderopacity="1"
     objecttolerance="10"
     gridtolerance="10"
     guidetolerance="10"
     inkscape:pageopacity="0"
     inkscape:pageshadow="2"
     inkscape:window-width="1920"
     inkscape:window-height="1012"
     id="namedview6"
     showgrid="false"
     fit-margin-top="0"
     fit-margin-left="0"
     fit-margin-right="0"
     fit-margin-bottom="0"
     inkscape:zoom="3.4766083"
     inkscape:cx="-55.077564"
     inkscape:cy="69.107249"
     inkscape:window-x="0"
     inkscape:window-y="28"
     inkscape:window-maximized="0"
     inkscape:current-layer="svg4" />
  <path
     d="M 31.902546,0.75 A 31.152542,31.152542 0 0 0 0.75,31.902543 c 0,13.769423 8.94078,25.451626 21.308342,29.594915 1.557626,0.24922 2.056067,-0.716509 2.056067,-1.557628 0,-0.716507 0,-2.679117 0,-5.264778 C 15.485156,56.544204 13.64716,50.50061 13.64716,50.50061 c -1.43302,-3.613694 -3.45794,-4.579424 -3.45794,-4.579424 -2.83488,-1.931457 0.21807,-1.869151 0.21807,-1.869151 3.11526,0.218067 4.76634,3.20871 4.76634,3.20871 2.710271,4.735188 7.289695,3.333323 9.06539,2.585661 0.280372,-2.024914 1.090339,-3.395626 1.962609,-4.17444 -6.915863,-0.778812 -14.174409,-3.457931 -14.174409,-15.32705 0,-3.457932 1.1838,-6.23051 3.20872,-8.44234 -0.31153,-0.778813 -1.40187,-4.018677 0.311521,-8.224271 0,0 2.616814,-0.841119 8.566948,3.17756 2.461052,-0.685357 5.14017,-1.028034 7.788137,-1.028034 2.647965,0 5.327083,0.342677 7.788135,1.028034 5.950136,-4.018679 8.566948,-3.17756 8.566948,-3.17756 1.713391,4.205594 0.623052,7.445458 0.311527,8.224271 2.024914,2.21183 3.208712,4.984408 3.208712,8.44234 0,11.90027 -7.289696,14.517084 -14.236712,15.295899 1.121491,0.965728 2.149525,2.866032 2.149525,5.76322 0,4.174441 0,7.538914 0,8.535795 0,0.841119 0.498441,1.838 2.08722,1.557628 12.36756,-4.174441 21.277187,-15.825492 21.277187,-29.594915 A 31.152542,31.152542 0 0 0 31.902546,0.75 Z"
     id="path2"
     inkscape:connector-curvature="0"
     style="fill:#ffffff;fill-opacity:1;stroke:#000000;stroke-width:1;stroke-miterlimit:4;stroke-dasharray:none;stroke-opacity:1" />
</svg>
