<?xml version="1.0" encoding="UTF-8" standalone="no"?>
<!-- Created with Inkscape (http://www.inkscape.org/) -->

<svg
   xmlns:dc="http://purl.org/dc/elements/1.1/"
   xmlns:cc="http://creativecommons.org/ns#"
   xmlns:rdf="http://www.w3.org/1999/02/22-rdf-syntax-ns#"
   xmlns:svg="http://www.w3.org/2000/svg"
   xmlns="http://www.w3.org/2000/svg"
   xmlns:sodipodi="http://sodipodi.sourceforge.net/DTD/sodipodi-0.dtd"
   xmlns:inkscape="http://www.inkscape.org/namespaces/inkscape"
   width="300"
   height="149.8786"
   viewBox="0 0 79.375007 39.655379"
   version="1.1"
   id="svg8"
   sodipodi:docname="logo.svg"
   inkscape:version="0.92.2 2405546, 2018-03-11">
  <defs
     id="defs2">
    <inkscape:path-effect
       effect="perspective-envelope"
       up_left_point="31.833198,195.13559"
       up_right_point="176.83675,195.13559"
       down_left_point="31.833198,203.87558"
       down_right_point="291.89628,210.15903"
       id="path-effect5071"
       is_visible="true"
       deform_type="perspective"
       horizontal_mirror="false"
       vertical_mirror="false"
       overflow_perspective="false" />
    <inkscape:path-effect
       effect="mirror_symmetry"
       start_point="148.53512,57.543205"
       end_point="148.53512,62.938795"
       center_point="148.53512,60.241"
       id="path-effect4987"
       is_visible="true"
       mode="free"
       discard_orig_path="false"
       fuse_paths="false"
       oposite_fuse="false" />
    <inkscape:path-effect
       effect="perspective-envelope"
       up_left_point="214.21548,722.6545"
       up_right_point="288.27501,717.60373"
       down_left_point="224.00195,809.11914"
       down_right_point="298.12399,811.64452"
       id="path-effect4950"
       is_visible="true"
       deform_type="perspective"
       horizontal_mirror="false"
       vertical_mirror="false"
       overflow_perspective="false" />
    <inkscape:path-effect
       effect="transform_2pts"
       start="268.591,739.57455"
       end="291.55546,814.04367"
       id="path-effect4946"
       is_visible="true"
       first_knot="1"
       last_knot="17"
       helper_size="3"
       stretch="1"
       offset="0"
       elastic="false"
       from_original_width="false"
       flip_vertical="false"
       flip_horizontal="false"
       lock_lenght="false"
       lock_angle="false" />
    <inkscape:path-effect
       effect="bend_path"
       id="path-effect4944"
       is_visible="true"
       bendpath="m 224.00195,766.26562 59.22229,-10.35406"
       prop_scale="1"
       scale_y_rel="false"
       vertical="false"
       bendpath-nodetypes="cc" />
    <inkscape:path-effect
       effect="envelope"
       id="path-effect4942"
       is_visible="true"
       yy="true"
       xx="true"
       bendpath1="m 224.00195,723.41211 h 65.28321"
       bendpath2="m 289.28516,723.41211 v 85.70703"
       bendpath3="m 224.00195,809.11914 97.10302,47.47717"
       bendpath4="m 224.00195,723.41211 v 85.70703"
       bendpath3-nodetypes="cc" />
    <inkscape:path-effect
       effect="mirror_symmetry"
       start_point="144.13464,82.73618"
       end_point="144.13464,114.72208"
       center_point="144.13464,98.72913"
       id="path-effect4810"
       is_visible="true"
       mode="free"
       discard_orig_path="false"
       fuse_paths="true"
       oposite_fuse="false" />
    <inkscape:path-effect
       effect="mirror_symmetry"
       start_point="140.48,77.392477"
       end_point="141.68355,109.37834"
       center_point="141.08177,93.385408"
       id="path-effect4808"
       is_visible="true"
       mode="free"
       discard_orig_path="false"
       fuse_paths="true"
       oposite_fuse="false" />
    <inkscape:path-effect
       effect="envelope"
       id="path-effect4785"
       is_visible="true"
       yy="true"
       xx="false"
       bendpath1="M 97.944399,90.912225 C 109.48939,73.594097 161.84151,72.498608 175.26344,90.644955"
       bendpath2="m 176.83681,90.262579 c -1.54434,11.409521 -0.65753,2.755048 -0.9052,17.554371"
       bendpath3="M 97.944399,109.42056 C 117.63857,97.954032 154.57353,95.118391 175.26344,107.54968"
       bendpath4="M 97.944399,78.885096 V 100.06613"
       bendpath3-nodetypes="cc"
       bendpath1-nodetypes="cc"
       bendpath2-nodetypes="cc" />
    <inkscape:path-effect
       effect="envelope"
       id="path-effect4760"
       is_visible="true"
       yy="true"
       xx="false"
       bendpath1="m 99.144861,88.410102 c 29.563009,-15.587425 54.202819,-13.559601 75.581799,0"
       bendpath2="M 174.72666,88.410102 V 109.59119"
       bendpath3="M 99.211678,108.38848 C 132.72152,96.150941 156.78048,97.978992 175.2612,110.19255"
       bendpath4="M 99.144861,88.410102 V 109.59119"
       bendpath1-nodetypes="cc"
       bendpath3-nodetypes="cc" />
    <inkscape:path-effect
       effect="vonkoch"
       id="path-effect4758"
       is_visible="true"
       ref_path="M 369.68164,408.17578 H 663.92969"
       generator="m 369.68164,448.20312 h 98.08268 m 98.08269,0 h 98.08268"
       similar_only="false"
       nbgenerations="1"
       drawall="true"
       maxComplexity="1000" />
    <inkscape:path-effect
       effect="transform_2pts"
       start="370.58,368.14844"
       end="652.19531,368.14844"
       id="path-effect1053"
       is_visible="true"
       first_knot="1"
       last_knot="36"
       helper_size="3"
       stretch="1"
       offset="0"
       elastic="false"
       from_original_width="false"
       flip_vertical="false"
       flip_horizontal="false"
       lock_lenght="false"
       lock_angle="false" />
    <inkscape:path-effect
       effect="spiro"
       id="path-effect1051"
       is_visible="true" />
    <inkscape:path-effect
       effect="ellipse_5pts"
       id="path-effect1049"
       is_visible="true" />
    <inkscape:path-effect
       effect="bspline"
       id="path-effect1047"
       is_visible="true"
       weight="33.333333"
       steps="2"
       helper_size="0"
       apply_no_weight="true"
       apply_with_weight="true"
       only_selected="false" />
    <inkscape:path-effect
       effect="bend_path"
       id="path-effect1045"
       is_visible="true"
       bendpath="m 374.68164,409.60435 c 118.25028,1.9115 170.04327,-3.48501 289.24805,-1.42857"
       prop_scale="1"
       scale_y_rel="false"
       vertical="false"
       bendpath-nodetypes="cc" />
    <inkscape:path-effect
       effect="bend_path"
       id="path-effect1033"
       is_visible="true"
       bendpath="m 96.866631,100.90946 c 25.957739,-9.973634 52.793149,-9.170184 80.309939,0"
       prop_scale="1"
       scale_y_rel="false"
       vertical="false"
       bendpath-nodetypes="cc" />
    <filter
       inkscape:collect="always"
       style="color-interpolation-filters:sRGB"
       id="filter2149"
       x="-0.035104928"
       width="1.0702099"
       y="-0.075868863"
       height="1.1517377">
      <feGaussianBlur
         inkscape:collect="always"
         stdDeviation="4.8018252"
         id="feGaussianBlur2151" />
    </filter>
  </defs>
  <sodipodi:namedview
     id="base"
     pagecolor="#ffffff"
     bordercolor="#666666"
     borderopacity="1.0"
     inkscape:pageopacity="0.0"
     inkscape:pageshadow="2"
     inkscape:zoom="1.4142136"
     inkscape:cx="346.52639"
     inkscape:cy="109.23029"
     inkscape:document-units="mm"
     inkscape:current-layer="g1866"
     showgrid="false"
     inkscape:window-width="1600"
     inkscape:window-height="860"
     inkscape:window-x="0"
     inkscape:window-y="0"
     inkscape:window-maximized="0"
     inkscape:snap-others="false"
     inkscape:object-nodes="false"
     inkscape:snap-nodes="false"
     fit-margin-top="0"
     fit-margin-left="0"
     fit-margin-right="0"
     fit-margin-bottom="0"
     units="px" />
  <metadata
     id="metadata5">
    <rdf:RDF>
      <cc:Work
         rdf:about="">
        <dc:format>image/svg+xml</dc:format>
        <dc:type
           rdf:resource="http://purl.org/dc/dcmitype/StillImage" />
        <dc:title></dc:title>
      </cc:Work>
    </rdf:RDF>
  </metadata>
  <g
     inkscape:label="Base"
     inkscape:groupmode="layer"
     id="layer1"
     style="display:inline;opacity:1"
     transform="translate(-27.569847,-100.57903)" />
  <g
     transform="translate(-27.569847,-100.57903)"
     style="display:inline;opacity:1"
     id="g918"
     inkscape:groupmode="layer"
     inkscape:label="Base copy">
    <g
       id="g1866"
       transform="matrix(0.22518685,0,0,0.22518685,21.36148,92.509098)">
      <path
         inkscape:connector-curvature="0"
         id="path5065"
         d="m 159.73409,47.939215 c -1.17576,0.03001 -2.33574,0.393483 -3.48403,1.000456 v 1.351338 h 7.06314 v -1.351338 c -1.21181,-0.727027 -2.40335,-1.03047 -3.57911,-1.000456 z m -3.30006,2.873726 v 7.70909 h 0.68161 v -7.70909 z m 1.50172,0 v 7.121013 h 0.68368 v -7.121013 z m 1.50378,0 v 6.974768 h 0.68368 v -6.974768 z m 1.5043,0 v 7.121013 h 0.68317 v -7.121013 z m 1.50379,0 v 7.70909 h 0.68161 v -7.70909 z m -2.75125,7.662582 c -1.0323,0.01913 -2.15501,0.297197 -3.41065,0.954463 v 16.34474 c 2.465,0.298381 4.59582,0.589208 7.03265,1.050065 V 59.429986 c -1.11716,-0.575653 -2.29476,-0.979064 -3.622,-0.954463 z M 148.4061,76.211392 c -16.63141,-0.05679 -33.29481,5.682122 -42.22946,15.124141 v 8.847517 c 11.59027,-14.116369 58.29912,-23.263014 80.84726,0 V 91.335533 C 177.73084,80.823852 163.08088,76.261496 148.4061,76.211392 Z m -1.94149,14.42599 c -0.12505,7.94e-4 -0.2501,0.0019 -0.37465,0.0031 -2.51941,0.02603 -4.77128,0.176218 -4.77128,0.176218 v 22.19141 c 0,0 2.34867,-0.20159 4.74079,-0.308 0.11829,-0.005 0.23678,-0.0106 0.35554,-0.0155 0.0231,-0.001 0.0467,-0.002 0.0698,-0.003 0.0232,10e-4 0.0462,0.002 0.0692,0.003 0.11877,0.005 0.23725,0.0105 0.35554,0.0155 2.39212,0.10641 4.74079,0.308 4.74079,0.308 V 90.816696 c 0,0 -2.25187,-0.150196 -4.77128,-0.176218 -0.12455,-0.0013 -0.24908,-0.0024 -0.37414,-0.0031 -0.007,-4.2e-5 -0.0134,4.3e-5 -0.0202,0 -0.007,4.3e-5 -0.0135,-4.2e-5 -0.0202,0 z m -8.61342,0.478526 c 0,0 -2.50271,0.241059 -4.78059,0.622699 -2.27828,0.381704 -4.09432,0.91209 -4.09432,0.91209 V 114.8111 c 0,0 2.57291,-0.45807 4.73717,-0.81959 2.1642,-0.36151 4.13774,-0.62735 4.13774,-0.62735 z m 17.26664,0 v 22.248252 c 0,0 1.97355,0.26584 4.13773,0.62735 2.16426,0.36152 4.73718,0.81959 4.73718,0.81959 V 92.650697 c 0,0 -1.81604,-0.530386 -4.09432,-0.91209 -2.27788,-0.38164 -4.78059,-0.622699 -4.78059,-0.622699 z m -30.52475,2.608625 c -0.39782,0.122303 -0.87293,0.272851 -1.4056,0.451135 -2.28162,0.763575 -4.66121,2.103231 -4.66121,2.103231 v 21.359421 c 0,0 3.5301,-0.97623 5.72885,-1.57613 0.77922,-0.21259 0.58799,-0.41417 1.31258,-0.59325 V 93.724533 Z m 42.80876,0 v 21.744407 c 0.7246,0.17908 0.53284,0.38066 1.31206,0.59325 2.19875,0.5999 5.72885,1.57613 5.72885,1.57613 V 96.278899 c 0,0 -2.37959,-1.339656 -4.66121,-2.103231 -0.53267,-0.178284 -1.00778,-0.328832 -1.4056,-0.451135 z m -50.86873,3.582728 c 0,0 -1.40404,0.450786 -2.33216,1.050065 -1.34144,0.865854 -2.3828,2.105294 -2.3828,2.105294 v 19.94917 c 0,0 2.10527,-0.77421 3.49798,-1.34565 0.96851,-0.39721 1.21698,-0.70848 1.21698,-0.70848 z m 59.9028,0 v 21.050399 c 0,0 0.24847,0.31127 1.21698,0.70848 1.39271,0.57144 3.49798,1.34565 3.49798,1.34565 v -19.94917 c 0,0 -1.04136,-1.23944 -2.3828,-2.105294 -0.92812,-0.599279 -2.33216,-1.050065 -2.33216,-1.050065 z m 44.10532,4.132049 -22.17281,51.09094 h 9.55032 l 4.00751,-9.6175 h 16.29565 l 3.80648,9.6175 h 11.21999 l -22.17281,-51.09094 z m -110.02119,0.14676 c 0,0 -0.94338,0.60031 -1.4764,1.25419 -0.53294,0.65379 -0.98547,1.36064 -0.98547,1.36064 v 18.42109 l 2.46187,-1.52548 z m 71.92894,0 v 19.51044 l 2.46187,1.52548 V 104.2009 c 0,0 -0.45253,-0.70685 -0.98547,-1.36064 -0.53301,-0.65388 -1.4764,-1.25419 -1.4764,-1.25419 z m 171.89339,1.25574 c -4.71951,0 -8.88225,1.09101 -12.48865,3.27267 -3.60641,2.13712 -6.41144,5.14243 -8.415,9.01598 -2.00355,3.87355 -3.0055,8.28137 -3.0055,13.22348 0,4.49688 1.00195,8.63748 3.0055,12.42198 2.00356,3.73998 4.89768,6.72316 8.68217,8.94933 3.7845,2.22618 8.23659,3.33933 13.35681,3.33933 3.20569,0 6.16672,-0.51229 8.88267,-1.53634 2.71592,-1.02404 4.69714,-2.04812 5.94381,-3.07216 l -4.00698,-8.68216 c -1.11311,1.06855 -2.62681,2.00357 -4.54134,2.805 -1.9145,0.75689 -4.07387,1.13533 -6.47816,1.13533 -2.98307,0 -5.58782,-0.66779 -7.814,-2.0035 -2.22615,-1.3357 -3.94017,-3.18307 -5.1423,-5.54281 -1.20214,-2.40427 -1.80351,-5.18716 -1.80351,-8.34833 0,-2.89403 0.64564,-5.52091 1.93683,-7.88066 1.29117,-2.40426 3.02784,-4.29642 5.20949,-5.67665 2.18167,-1.38023 4.51868,-2.07068 7.01198,-2.07068 3.69547,0 7.30213,1.3361 10.8195,4.00751 l 3.80648,-9.14983 c -1.91452,-1.20213 -4.1403,-2.20408 -6.67813,-3.0055 -2.53786,-0.80142 -5.2986,-1.20199 -8.28167,-1.20199 z m -90.36968,0.26716 c -4.63045,0.22262 -8.34835,1.62513 -11.15333,4.2075 -2.76046,2.58236 -4.14031,5.98824 -4.14031,10.21798 0,2.89403 0.66779,5.29848 2.00349,7.213 1.38023,1.91451 3.00517,3.38396 4.87516,4.40799 1.86998,1.02405 4.20751,2.09241 7.01249,3.2055 4.76402,1.86998 7.14581,4.07364 7.14581,6.61148 10e-6,1.95904 -0.75686,3.3842 -2.27066,4.27467 -1.5138,0.84595 -3.29474,1.26866 -5.34282,1.26866 -1.73642,0 -3.69551,-0.40058 -5.87716,-1.202 -2.18165,-0.80142 -4.11809,-1.8255 -5.80998,-3.07216 l -4.27416,7.54683 c 2.49331,1.78094 5.18661,3.11651 8.08064,4.00699 2.89403,0.84594 5.81027,1.26917 8.74882,1.26917 3.51735,0 6.54533,-0.62351 9.08317,-1.87017 2.53784,-1.29118 4.45213,-3.00519 5.74331,-5.14232 1.33571,-2.18166 2.0035,-4.54183 2.0035,-7.07967 0,-2.93855 -0.55658,-5.36463 -1.66966,-7.27915 -1.06856,-1.91451 -2.42628,-3.4061 -4.07366,-4.47466 -1.64736,-1.11309 -3.62859,-2.09289 -5.94382,-2.93884 -2.8495,-1.06856 -5.14275,-2.18171 -6.87917,-3.33933 -1.69189,-1.20213 -2.53783,-2.58198 -2.53783,-4.14031 0,-1.6919 0.57872,-2.96106 1.73633,-3.80701 1.20213,-0.84593 2.87187,-1.26865 5.009,-1.26865 3.16117,0 6.87908,1.17957 11.15332,3.53932 l 3.67316,-7.41299 c -2.31522,-1.5138 -4.69754,-2.67123 -7.14633,-3.47265 -2.44879,-0.84595 -5.49839,-1.26918 -9.14931,-1.26918 z m 25.37726,0.26717 v 49.15411 h 9.68416 v -15.62799 h 6.47816 l 10.3513,15.62799 h 11.28664 l -11.41997,-17.83199 c 2.62692,-1.5138 4.56385,-3.58411 5.81052,-6.21099 1.29116,-2.67141 1.9363,-5.52072 1.9363,-8.54832 0,-5.1202 -1.69186,-9.14959 -5.07566,-12.08815 -3.33926,-2.98307 -8.05858,-4.47466 -14.15831,-4.47466 z m 9.68416,9.34982 h 6.94531 c 2.93854,0 4.91979,0.82379 5.94384,2.47116 1.02404,1.60285 1.53633,3.29472 1.53633,5.07566 0,1.78094 -0.60137,3.45068 -1.80351,5.009 -1.20213,1.5138 -3.11642,2.27066 -5.74331,2.27066 h -6.87866 z m -152.5204,4.23953 c -14.48301,0.0127 -28.93734,3.42716 -40.33707,10.20506 v 35.4428 l -6.53397,-2.15181 v -3.23907 H 72.151322 l -3.306257,1.86862 v 5.8384 l -23.844539,16.78657 h 2.439127 v 3.32641 l -5.419307,3.39618 v 2.47736 0.94517 1.06092 l 8.893514,6.91378 h 31.906063 v -9.85779 h 4.074686 v 0.0139 h 0.0041 v 0.5426 l -0.0041,5.3e-4 v 9.30073 H 264.39282 l -55.17803,-6.82698 -22.19089,-18.35753 v -47.48083 c -11.51547,-6.82856 -26.02718,-10.21772 -40.51019,-10.20506 z m 73.76035,5.84512 4.74183,11.95483 h -9.68365 z m -85.93997,14.53297 v 12.65452 l -12.19719,0.28319 v -11.70936 c 3.84267,-0.55816 7.97943,-0.92024 12.19719,-1.22835 z m 24.03161,0 c 4.21777,0.30811 8.35451,0.67019 12.19719,1.22835 v 11.70936 L 158.3657,149.9981 Z m -25.28993,1.44435 c -3.3858,0.24734 -6.70643,0.53792 -9.79113,0.98599 v 9.39994 l 9.79113,-0.22789 z m 26.61543,0 v 10.15804 l 9.79113,0.22789 v -9.39994 c -3.0847,-0.44807 -6.40533,-0.73865 -9.79113,-0.98599 z m -87.516105,6.4053 v 11.28975 h 2.533179 v -11.28975 z m 24.870833,0 v 11.28975 h 2.533182 v -11.28975 z m -21.602816,3.94291 v 1.30483 h 20.833352 v -1.30483 z m 0,5.29166 v 1.30483 h 20.833352 v -1.30483 z m 248.114058,6.71897 -7.01974,16.17473 h 3.02361 l 1.26865,-3.04478 h 5.15884 l 1.2051,3.04478 h 3.55224 l -7.01974,-16.17473 z m 20.72481,0.44391 c -1.4941,0 -2.81201,0.34543 -3.95374,1.03611 -1.14173,0.67658 -2.02962,1.62777 -2.66393,2.85409 -0.63429,1.2263 -0.95187,2.6217 -0.95187,4.1863 0,1.42365 0.31758,2.73498 0.95187,3.9331 0.63431,1.18402 1.55003,2.12812 2.74814,2.8329 1.19812,0.70477 2.60771,1.0573 4.22871,1.0573 1.01486,0 1.95238,-0.16208 2.81223,-0.48628 0.85981,-0.32419 1.48685,-0.64835 1.88153,-0.97255 l -1.26815,-2.74867 c -0.35237,0.3383 -0.83204,0.63408 -1.43814,0.8878 -0.60611,0.23962 -1.28937,0.35967 -2.05052,0.35967 -0.94441,0 -1.76898,-0.21172 -2.47375,-0.63458 -0.7048,-0.42287 -1.24775,-1.00788 -1.62833,-1.75493 -0.38057,-0.76117 -0.57052,-1.64196 -0.57052,-2.64274 0,-0.91619 0.20413,-1.74788 0.61288,-2.49494 0.40878,-0.76116 0.95832,-1.36034 1.64902,-1.7973 0.69067,-0.43696 1.43065,-0.65526 2.22001,-0.65526 1.16994,0 2.31209,0.42292 3.42561,1.26866 l 1.2051,-2.89647 c -0.60611,-0.38057 -1.31114,-0.69816 -2.1146,-0.95188 -0.80343,-0.25372 -1.67714,-0.38033 -2.62155,-0.38033 z m -116.5722,0.16898 v 15.56184 h 3.06597 v -6.3221 h 6.95616 v 6.3221 h 3.06596 v -15.56184 h -3.06596 v 6.27972 h -6.95616 v -6.27972 z m 22.84099,0 v 15.56184 h 3.06544 v -15.56184 z m 11.78997,0 v 2.96002 h 3.63648 v 12.60182 h 3.06596 v -12.60182 h 3.78426 v -2.96002 z m 19.19005,0 v 15.56184 h 10.90993 v -2.96055 h -7.84397 v -3.36155 h 6.68125 v -2.96002 h -6.68125 v -3.3197 h 7.54786 v -2.96002 z m 19.82617,0 v 15.56184 h 3.06547 v -6.11074 h 5.77225 v -2.96003 h -5.77225 v -3.53105 h 6.66056 v -2.96002 z m 56.79395,0 v 15.56184 h 10.90994 v -2.96055 h -7.84397 v -3.36155 h 6.68126 v -2.96002 h -6.68126 v -3.3197 h 7.54785 v -2.96002 z m -159.15617,0.10593 6.25853,16.17473 4.31292,-9.26094 3.70055,9.21856 6.00428,-16.13235 h -3.29799 l -2.64325,8.64754 -3.48867,-8.64754 h -3.04426 l 1.22628,3.06597 -2.36833,5.94124 -3.06545,-9.00721 z m -64.66065,2.697 v 12.17703 H 122.1369 v -11.70885 z m 24.03161,0 12.19719,0.46818 v 11.70885 H 158.3657 Z m -25.20157,1.38079 -9.64953,0.37 v 9.26352 h 9.64953 z m 26.50536,0 v 9.63352 h 9.64954 v -9.26352 z m 163.80294,1.96887 1.50119,3.78478 h -3.06597 z m -238.783372,0.16692 4.271058,7.18509 1.345655,-1.18391 1.273823,2.84582 2.684074,2.37092 v 5.4193 H 76.042557 v -6.80165 l 1.471229,-2.03347 0.524515,1.49397 1.042316,-0.32453 2.756421,-5.41362 0.822171,-0.29507 z m -8.646501,17.25321 h 18.221111 v 4.12119 H 76.042557 Z"
         style="display:inline;opacity:0.9;fill:#000000;fill-opacity:1;stroke:none;stroke-width:0.27774459px;stroke-linecap:butt;stroke-linejoin:miter;stroke-opacity:1;filter:url(#filter2149)" />
      <path
         transform="matrix(0.26458333,0,0,0.26458333,31.833198,32.076103)"
         inkscape:connector-curvature="0"
         style="fill:#ffffff;fill-opacity:1;stroke:#000000;stroke-width:13.42716987;stroke-linecap:butt;stroke-linejoin:miter;stroke-opacity:1;stroke-miterlimit:4;stroke-dasharray:none"
         d="m 474.52344,37.955078 c -4.44382,0.113437 -8.82798,1.487181 -13.16797,3.78125 v 5.107422 h 26.69531 v -5.107422 c -4.58005,-2.747817 -9.08353,-3.894687 -13.52734,-3.78125 z m -12.47266,10.861328 v 29.136719 h 2.57617 V 48.816406 Z m 5.67578,0 v 26.914063 h 2.58399 V 48.816406 Z m 5.6836,0 v 26.361328 h 2.58398 V 48.816406 Z m 5.68554,0 v 26.914063 h 2.58203 V 48.816406 Z m 5.6836,0 v 29.136719 h 2.57617 V 48.816406 Z m -10.39844,28.960938 c -3.90161,0.07232 -8.14489,1.123267 -12.89063,3.607422 v 61.775394 c 9.31654,1.12774 17.37002,2.22693 26.58008,3.96875 V 81.384766 c -4.22233,-2.175699 -8.6731,-3.700401 -13.68945,-3.607422 z m -42.67188,67.033206 c -62.85888,-0.21463 -125.83865,21.47574 -159.60742,57.16211 v 33.43945 c 43.80575,-53.35322 220.34314,-87.92322 305.56446,0 V 201.97266 C 542.54267,162.24347 487.17274,144.99992 431.70898,144.81055 Z m -7.33789,54.52343 c -0.47266,0.003 -0.94527,0.007 -1.41601,0.0117 -9.52218,0.0984 -18.0332,0.66602 -18.0332,0.66602 v 83.87305 c 0,0 8.87688,-0.76189 17.91796,-1.16407 0.44708,-0.0189 0.8949,-0.0401 1.34375,-0.0586 0.0873,-0.004 0.17637,-0.006 0.26368,-0.01 0.0877,0.004 0.17441,0.006 0.26171,0.01 0.44886,0.0189 0.89667,0.0397 1.34375,0.0586 9.04109,0.40218 17.91797,1.16407 17.91797,1.16407 V 200.0117 c 0,0 -8.51102,-0.56767 -18.0332,-0.66602 -0.47074,-0.005 -0.94139,-0.009 -1.41406,-0.0117 -0.0265,-1.6e-4 -0.0508,1.6e-4 -0.0762,0 -0.0265,1.6e-4 -0.0509,-1.6e-4 -0.0762,0 z m -32.55468,1.8086 c 0,0 -9.45905,0.91109 -18.06836,2.35351 -8.61083,1.44266 -15.47461,3.44727 -15.47461,3.44727 v 83.75586 c 0,0 9.72441,-1.73128 17.90429,-3.09766 8.17962,-1.36633 15.63868,-2.37109 15.63868,-2.37109 z m 65.25976,0 v 84.08789 c 0,0 7.45906,1.00476 15.63867,2.37109 8.17988,1.36638 17.9043,3.09766 17.9043,3.09766 v -83.75586 c 0,0 -6.86379,-2.00461 -15.47461,-3.44727 -8.60931,-1.44242 -18.06836,-2.35351 -18.06836,-2.35351 z m -115.36914,9.85937 c -1.50357,0.46225 -3.29926,1.03125 -5.3125,1.70508 -8.62344,2.88595 -17.61719,7.94922 -17.61719,7.94922 v 80.72852 c 0,0 13.34211,-3.6897 21.65235,-5.95704 2.94508,-0.80349 2.22231,-1.56535 4.96093,-2.24218 v -82.1836 z m 161.79688,0 v 82.1836 c 2.73864,0.67683 2.0139,1.43869 4.95898,2.24218 8.31024,2.26734 21.65234,5.95704 21.65234,5.95704 v -80.72852 c 0,0 -8.99374,-5.06327 -17.61718,-7.94922 -2.01324,-0.67383 -3.80893,-1.24283 -5.3125,-1.70508 z m -192.25977,13.54102 c 0,0 -5.3066,1.70376 -8.81445,3.96875 -5.07001,3.27252 -9.00586,7.95703 -9.00586,7.95703 v 75.39844 c 0,0 7.95692,-2.92617 13.2207,-5.08594 3.66051,-1.50127 4.59961,-2.67773 4.59961,-2.67773 z m 226.4043,0 v 79.56055 c 0,0 0.9391,1.17646 4.59961,2.67773 5.26378,2.15977 13.2207,5.08594 13.2207,5.08594 v -75.39844 c 0,0 -3.93585,-4.68451 -9.00586,-7.95703 -3.50785,-2.26499 -8.81445,-3.96875 -8.81445,-3.96875 z m 166.69726,15.61719 -83.80273,193.09961 h 36.0957 l 15.14649,-36.34961 H 733.375 l 14.38672,36.34961 h 42.40625 L 706.36523,240.16016 Z m -415.82812,0.55468 c 0,0 -3.56555,2.26889 -5.58008,4.74024 -2.01426,2.47104 -3.72461,5.14258 -3.72461,5.14258 v 69.62304 l 9.30469,-5.76562 z m 271.85742,0 v 73.74024 l 9.30469,5.76562 v -69.62304 c 0,0 -1.71035,-2.67154 -3.72461,-5.14258 -2.01453,-2.47135 -5.58008,-4.74024 -5.58008,-4.74024 z m 649.6758,4.7461 c -17.8375,0 -33.5707,4.12352 -47.2012,12.36914 -13.6305,8.07733 -24.2322,19.43599 -31.8047,34.07617 -7.5725,14.64018 -11.3594,31.29966 -11.3594,49.97852 0,16.99605 3.7869,32.64559 11.3594,46.94921 7.5725,14.13534 18.5109,25.41034 32.8145,33.82422 14.3036,8.41391 31.1304,12.6211 50.4824,12.6211 12.116,0 23.3073,-1.93623 33.5723,-5.80664 10.2649,-3.87039 17.753,-7.74094 22.4648,-11.61133 l -15.1445,-32.81445 c -4.207,4.03861 -9.9281,7.57254 -17.1641,10.60156 -7.2359,2.86072 -15.3973,4.29101 -24.4844,4.29101 -11.2746,0 -21.1193,-2.52392 -29.5332,-7.57226 -8.4138,-5.04834 -14.892,-12.03049 -19.4355,-20.94922 -4.5435,-9.08699 -6.8164,-19.60499 -6.8164,-31.55274 0,-10.93805 2.4402,-20.86642 7.3203,-29.78515 4.88,-9.08699 11.4438,-16.23845 19.6894,-21.45508 8.2457,-5.2166 17.0785,-7.82617 26.502,-7.82617 13.9671,0 27.5986,5.0498 40.8926,15.14648 l 14.3867,-34.58203 c -7.236,-4.54349 -15.6484,-8.33037 -25.2402,-11.35937 -9.5919,-3.02901 -20.0262,-4.54297 -31.3008,-4.54297 z m -341.55471,1.00976 c -17.5009,0.84139 -31.55279,6.14222 -42.15429,15.90235 -10.43324,9.7601 -15.64844,22.63274 -15.64844,38.61914 0,10.93805 2.52396,20.02576 7.57226,27.26172 5.21661,7.23595 11.35812,12.78977 18.42579,16.66015 7.06766,3.87039 15.9024,7.9083 26.5039,12.11524 18.00575,7.06766 27.00781,15.39644 27.00781,24.98828 10e-6,7.40424 -2.86058,12.7907 -8.58203,16.15625 -5.72145,3.19728 -12.45258,4.79492 -20.19336,4.79492 -6.56284,0 -13.96727,-1.51398 -22.21289,-4.54297 -8.24559,-3.02901 -15.56442,-6.89954 -21.95898,-11.61133 l -16.1543,28.52344 c 9.42355,6.73111 19.60294,11.77896 30.54102,15.14453 10.93805,3.19728 21.96006,4.79688 33.0664,4.79688 13.29394,0 24.73825,-2.35658 34.33008,-7.06836 9.59184,-4.88005 16.82696,-11.3582 21.70703,-19.43555 5.04832,-8.24562 7.57227,-17.16598 7.57227,-26.75781 0,-11.10632 -2.10361,-20.27576 -6.31055,-27.51172 -4.03865,-7.23596 -9.17019,-12.87346 -15.39648,-16.91211 -6.22627,-4.20697 -13.71438,-7.91014 -22.46485,-11.10742 -10.76976,-4.03865 -19.43715,-8.24586 -26,-12.6211 -6.39455,-4.54349 -9.59179,-9.75869 -9.59179,-15.64843 0,-6.39456 2.18727,-11.1914 6.5625,-14.38868 4.54349,-3.19723 10.85431,-4.79492 18.93164,-4.79492 11.94774,0 25.99968,4.45823 42.15429,13.37696 l 13.88282,-28.01758 c -8.75044,-5.72146 -17.75449,-10.096 -27.00977,-13.125 -9.25528,-3.19728 -20.7813,-4.79688 -34.58008,-4.79688 z m 95.91407,1.00977 v 185.7793 h 36.60154 v -59.06641 h 24.4844 l 39.123,59.06641 h 42.6582 l -43.1621,-67.39649 c 9.9285,-5.72145 17.2492,-13.54622 21.961,-23.47461 4.88,-10.09668 7.3183,-20.86569 7.3183,-32.30859 0,-19.35194 -6.3944,-34.58116 -19.1836,-45.6875 -12.6208,-11.27462 -30.4576,-16.91211 -53.5117,-16.91211 z m 36.60154,35.33789 h 26.25 c 11.1063,0 18.5945,3.11355 22.4649,9.33984 3.8704,6.05801 5.8066,12.45249 5.8066,19.1836 0,6.73111 -2.2729,13.04192 -6.8164,18.93164 -4.5435,5.72145 -11.7786,8.58203 -21.707,8.58203 h -25.9981 z M 424.55664,298.8418 c -54.73893,0.048 -109.36945,12.95305 -152.45508,38.57031 v 133.95703 l -24.69531,-8.13281 v -12.24219 h -103.9043 l -12.49609,7.0625 v 22.06641 l -90.121094,63.44531 h 9.21875 v 12.57226 l -20.482422,12.83594 v 9.36328 3.57227 4.00977 l 33.613281,26.13085 H 183.82422 v -37.25781 h 15.40039 v 0.0527 h 0.0156 v 2.05078 l -0.0156,0.002 v 35.15234 H 870.08398 L 661.53711,586.25 577.66602,516.86719 V 337.41211 C 534.14298,311.60338 479.29558,298.79395 424.55664,298.8418 Z m 278.7793,22.09179 17.92187,45.1836 H 684.6582 Z m -324.8125,54.92774 v 47.82812 l -46.09961,1.07032 v -44.25586 c 14.52348,-2.10955 30.15847,-3.47807 46.09961,-4.64258 z m 90.82812,0 c 15.94118,1.16451 31.5761,2.53303 46.09961,4.64258 v 44.25586 l -46.09961,-1.07032 z m -95.58398,5.45898 c -12.79673,0.93483 -25.34715,2.03307 -37.00586,3.72657 v 35.52734 l 37.00586,-0.86133 z m 100.59375,0 v 38.39258 l 37.00586,0.86133 v -35.52734 c -11.65871,-1.6935 -24.20914,-2.79174 -37.00586,-3.72657 z M 143.5918,405.5293 v 42.66992 h 9.57422 V 405.5293 Z m 94,0 v 42.66992 h 9.57422 V 405.5293 Z m -81.64844,14.90234 v 4.93164 h 78.74023 v -4.93164 z m 0,20 v 4.93164 h 78.74023 v -4.93164 z m 937.75394,25.39453 -26.5313,61.13281 h 11.4278 l 4.7949,-11.50781 h 19.498 l 4.5547,11.50781 h 13.4258 l -26.5313,-61.13281 z m 78.33,1.67774 c -5.647,0 -10.6281,1.30557 -14.9433,3.91601 -4.3152,2.55715 -7.671,6.15223 -10.0684,10.78711 -2.3973,4.63486 -3.5976,9.90882 -3.5976,15.82227 0,5.38071 1.2003,10.33693 3.5976,14.86523 2.3974,4.47504 5.8584,8.0433 10.3867,10.70703 4.5283,2.66371 9.8559,3.9961 15.9825,3.9961 3.8357,0 7.3791,-0.61257 10.6289,-1.83789 3.2497,-1.2253 5.6196,-2.45046 7.1113,-3.67579 l -4.793,-10.38867 c -1.3318,1.27859 -3.1447,2.39653 -5.4355,3.35547 -2.2908,0.90565 -4.8732,1.35938 -7.75,1.35938 -3.5694,0 -6.6859,-0.80023 -9.3496,-2.39844 -2.6638,-1.59824 -4.7159,-3.80928 -6.1543,-6.63281 -1.4384,-2.87683 -2.1563,-6.20581 -2.1563,-9.98829 0,-3.46278 0.7715,-6.60615 2.3164,-9.42968 1.545,-2.87683 3.622,-5.14147 6.2325,-6.79297 2.6104,-1.6515 5.4072,-2.47656 8.3906,-2.47656 4.4218,0 8.7386,1.59845 12.9472,4.79492 l 4.5547,-10.94727 c -2.2908,-1.43838 -4.9555,-2.63871 -7.9922,-3.59765 -3.0366,-0.95895 -6.3388,-1.4375 -9.9082,-1.4375 z m -440.58785,0.63867 v 58.8164 h 11.58789 v -23.89453 h 26.29102 v 23.89453 h 11.58789 v -58.8164 h -11.58789 v 23.73437 h -26.29102 v -23.73437 z m 86.32813,0 v 58.8164 h 11.58594 v -58.8164 z m 44.56054,0 v 11.1875 h 13.74415 v 47.6289 h 11.58789 v -47.6289 h 14.30273 v -11.1875 z m 72.5293,0 v 58.8164 h 41.23438 v -11.18945 h -29.64649 v -12.70508 h 25.25196 v -11.1875 h -25.25196 v -12.54687 h 28.52735 v -11.1875 z m 74.93358,0 v 58.8164 h 11.586 v -23.0957 h 21.8164 v -11.1875 h -21.8164 v -13.3457 h 25.1738 v -11.1875 z m 214.6543,0 v 58.8164 h 41.2344 v -11.18945 h -29.6465 v -12.70508 h 25.252 v -11.1875 h -25.252 v -12.54687 h 28.5273 v -11.1875 z m -601.53514,0.40039 23.65429,61.13281 16.30078,-35.00195 13.98633,34.84179 22.69336,-60.97265 h -12.46484 l -9.99024,32.68359 -13.18554,-32.68359 h -11.50586 l 4.63476,11.58789 -8.95117,22.45508 -11.58594,-34.04297 z m -244.38672,10.19336 v 46.02344 h -46.09961 v -44.25391 z m 90.82812,0 46.09961,1.76953 v 44.25391 h -46.09961 z m -95.25,5.21875 -36.4707,1.39844 v 35.01171 h 36.4707 z m 100.17774,0 v 36.41015 H 510.75 v -35.01171 z m 619.0977,7.4414 5.6738,14.30469 h -11.5879 z m -902.48833,0.63086 16.14258,27.15625 5.08594,-4.47461 4.81445,10.75586 10.14453,8.96094 v 20.48242 h -68.86719 v -25.70703 l 5.56055,-7.68555 1.98242,5.64649 3.93946,-1.22656 10.41797,-20.46094 3.10742,-1.11523 z m -32.67969,65.20899 h 68.86719 v 15.57617 h -68.86719 z"
         id="path916" />
      <path
         inkscape:connector-curvature="0"
         style="display:inline;opacity:1;fill:#ffffff;fill-opacity:1;stroke:#000000;stroke-width:0;stroke-linecap:butt;stroke-linejoin:miter;stroke-miterlimit:4;stroke-dasharray:none;stroke-opacity:1"
         d="m 157.3842,42.11838 c -1.17577,0.03001 -2.33574,0.393484 -3.48403,1.000456 v 1.351339 h 7.06314 v -1.351339 c -1.21181,-0.727027 -2.40335,-1.030469 -3.57911,-1.000456 z m -3.30007,2.873727 v 7.70909 h 0.68162 v -7.70909 z m 1.50172,0 v 7.121012 h 0.68368 v -7.121012 z m 1.50379,0 v 6.974768 h 0.68368 v -6.974768 z m 1.5043,0 v 7.121012 h 0.68316 v -7.121012 z m 1.50378,0 v 7.70909 h 0.68161 v -7.70909 z m -2.75125,7.662581 c -1.0323,0.01913 -2.155,0.297198 -3.41065,0.954464 v 16.34474 c 2.465,0.298381 4.59582,0.589208 7.03264,1.050065 V 53.609152 c -1.11715,-0.575654 -2.29475,-0.979065 -3.62199,-0.954464 z M 146.0562,70.390557 c -16.63141,-0.05679 -33.29481,5.682123 -42.22946,15.124142 v 8.847521 c 11.59027,-14.116373 58.29912,-23.263018 80.84726,0 V 85.514699 C 175.38094,75.003017 160.73098,70.440661 146.0562,70.390557 Z m -1.94148,14.425991 c -0.12506,7.94e-4 -0.25011,0.0019 -0.37466,0.0031 -2.51941,0.02604 -4.77128,0.176218 -4.77128,0.176218 v 22.191414 c 0,0 2.34868,-0.20159 4.74079,-0.30799 0.11829,-0.005 0.23678,-0.0106 0.35554,-0.0155 0.0231,-10e-4 0.0467,-0.002 0.0698,-0.003 0.0232,0.001 0.0462,0.002 0.0692,0.003 0.11876,0.005 0.23724,0.0105 0.35553,0.0155 2.39212,0.1064 4.7408,0.30799 4.7408,0.30799 V 84.995862 c 0,0 -2.25188,-0.150197 -4.77129,-0.176218 -0.12455,-0.0013 -0.24907,-0.0023 -0.37414,-0.0031 -0.007,-4.2e-5 -0.0134,4.2e-5 -0.0202,0 -0.007,4.2e-5 -0.0135,-4.2e-5 -0.0202,0 z m -8.61343,0.478525 c 0,0 -2.50271,0.24106 -4.78059,0.6227 -2.27828,0.381704 -4.09432,0.91209 -4.09432,0.91209 v 22.160407 c 0,0 2.57292,-0.45807 4.73718,-0.81959 2.16419,-0.36151 4.13773,-0.62735 4.13773,-0.62735 z m 17.26665,0 v 22.248257 c 0,0 1.97354,0.26584 4.13773,0.62735 2.16426,0.36152 4.73718,0.81959 4.73718,0.81959 V 86.829863 c 0,0 -1.81605,-0.530386 -4.09433,-0.91209 -2.27788,-0.38164 -4.78058,-0.6227 -4.78058,-0.6227 z m -30.52476,2.608626 c -0.39781,0.122303 -0.87292,0.272852 -1.40559,0.451135 -2.28162,0.763574 -4.66122,2.103231 -4.66122,2.103231 v 21.359425 c 0,0 3.5301,-0.97624 5.72885,-1.57614 0.77922,-0.21258 0.58799,-0.41416 1.31258,-0.59324 V 87.903699 Z m 42.80876,0 v 21.744411 c 0.7246,0.17908 0.53284,0.38066 1.31207,0.59324 2.19874,0.5999 5.72885,1.57614 5.72885,1.57614 V 90.458065 c 0,0 -2.3796,-1.339657 -4.66122,-2.103231 -0.53266,-0.178283 -1.00778,-0.328832 -1.40559,-0.451135 z m -50.86873,3.582727 c 0,0 -1.40404,0.450788 -2.33216,1.050066 -1.34144,0.865854 -2.3828,2.105297 -2.3828,2.105297 v 19.949171 c 0,0 2.10527,-0.77421 3.49798,-1.34565 0.96851,-0.39721 1.21698,-0.70849 1.21698,-0.70849 z m 59.90281,0 v 21.050394 c 0,0 0.24846,0.31128 1.21698,0.70849 1.3927,0.57144 3.49798,1.34565 3.49798,1.34565 V 94.641789 c 0,0 -1.04136,-1.239443 -2.3828,-2.105297 -0.92813,-0.599278 -2.33216,-1.050066 -2.33216,-1.050066 z m 44.10531,4.132049 -22.1728,51.090945 h 9.55031 l 4.00751,-9.61751 h 16.29566 l 3.80648,9.61751 h 11.21999 L 218.72567,95.618475 Z m -110.02119,0.146759 c 0,0 -0.94338,0.600311 -1.47639,1.254188 -0.53294,0.653796 -0.98548,1.360642 -0.98548,1.360642 v 18.421096 l 2.46187,-1.52549 z m 71.92894,0 v 19.510436 l 2.46187,1.52549 V 98.380064 c 0,0 -0.45252,-0.706846 -0.98547,-1.360642 -0.533,-0.653877 -1.4764,-1.254188 -1.4764,-1.254188 z m 171.8934,1.255739 c -4.71951,0 -8.88225,1.091014 -12.48865,3.272667 -3.60641,2.13713 -6.41145,5.14244 -8.415,9.01599 -2.00356,3.87355 -3.00551,8.28137 -3.00551,13.22348 0,4.49687 1.00195,8.63748 3.00551,12.42198 2.00355,3.73998 4.89768,6.72315 8.68217,8.94933 3.78449,2.22618 8.23659,3.33933 13.3568,3.33933 3.20569,0 6.16672,-0.51229 8.88267,-1.53634 2.71593,-1.02404 4.69715,-2.04812 5.94381,-3.07217 l -4.00698,-8.68215 c -1.1131,1.06855 -2.62681,2.00357 -4.54133,2.80499 -1.9145,0.7569 -4.07387,1.13533 -6.47816,1.13533 -2.98308,0 -5.58782,-0.66778 -7.814,-2.00349 -2.22615,-1.33571 -3.94018,-3.18307 -5.14231,-5.54281 -1.20214,-2.40427 -1.80351,-5.18716 -1.80351,-8.34833 0,-2.89403 0.64565,-5.52091 1.93683,-7.88066 1.29117,-2.40426 3.02784,-4.29642 5.20949,-5.67665 2.18168,-1.38023 4.51869,-2.07068 7.01199,-2.07068 3.69546,0 7.30213,1.33609 10.8195,4.00751 l 3.80648,-9.14983 c -1.91453,-1.20213 -4.14031,-2.20408 -6.67813,-3.005503 -2.53786,-0.801425 -5.2986,-1.201994 -8.28167,-1.201994 z m -90.36969,0.267166 c -4.63044,0.222618 -8.34835,1.625129 -11.15332,4.207501 -2.76046,2.58236 -4.14032,5.98824 -4.14032,10.21798 0,2.89402 0.6678,5.29848 2.0035,7.21299 1.38022,1.91452 3.00517,3.38396 4.87515,4.408 1.86999,1.02404 4.20751,2.09241 7.01249,3.20549 4.76402,1.86999 7.14582,4.07364 7.14582,6.61149 0,1.95903 -0.75686,3.3842 -2.27066,4.27467 -1.5138,0.84595 -3.29475,1.26866 -5.34283,1.26866 -1.73642,0 -3.69551,-0.40058 -5.87716,-1.202 -2.18164,-0.80142 -4.11809,-1.8255 -5.80998,-3.07216 l -4.27415,7.54682 c 2.49331,1.78094 5.1866,3.11652 8.08063,4.00699 2.89403,0.84595 5.81027,1.26918 8.74882,1.26918 3.51736,0 6.54533,-0.62351 9.08317,-1.87017 2.53784,-1.29118 4.45213,-3.00519 5.74332,-5.14232 1.3357,-2.18166 2.0035,-4.54184 2.0035,-7.07967 0,-2.93855 -0.55659,-5.36463 -1.66968,-7.27915 -1.06855,-1.91451 -2.42627,-3.4061 -4.07364,-4.47466 -1.64738,-1.11309 -3.6286,-2.09289 -5.94383,-2.93884 -2.8495,-1.06856 -5.14274,-2.18171 -6.87917,-3.33933 -1.69189,-1.20213 -2.53782,-2.58199 -2.53782,-4.14031 0,-1.6919 0.57871,-2.96106 1.73633,-3.80701 1.20213,-0.84593 2.87186,-1.26866 5.00899,-1.26866 3.16118,0 6.87909,1.17958 11.15332,3.53933 l 3.67316,-7.41299 c -2.31521,-1.5138 -4.69754,-2.671234 -7.14632,-3.472657 -2.4488,-0.845946 -5.4984,-1.269174 -9.14932,-1.269174 z m 25.37727,0.267168 v 49.154113 h 9.68415 v -15.62799 h 6.47817 l 10.35129,15.62799 h 11.28665 l -11.41997,-17.83199 c 2.62692,-1.5138 4.56384,-3.58411 5.81051,-6.21099 1.29117,-2.67142 1.9363,-5.52072 1.9363,-8.54832 0,-5.1202 -1.69185,-9.1496 -5.07566,-12.08815 -3.33925,-2.983078 -8.05857,-4.474663 -14.1583,-4.474663 z m 9.68415,9.349823 h 6.94532 c 2.93854,0 4.91979,0.82379 5.94384,2.47116 1.02404,1.60285 1.53633,3.29472 1.53633,5.07566 0,1.78094 -0.60138,3.45068 -1.80352,5.009 -1.20212,1.5138 -3.11641,2.27066 -5.74331,2.27066 h -6.87866 z m -152.5204,4.23953 c -14.48301,0.0127 -28.93733,3.42716 -40.33707,10.20506 v 35.4428 l -6.533972,-2.15181 v -3.23908 H 69.801422 l -3.306257,1.86862 v 5.83841 l -23.844539,16.78657 h 2.439128 v 3.32641 l -5.419308,3.39617 v 2.47737 0.94517 1.06092 l 8.893514,6.91378 h 31.906063 v -9.85779 h 4.074687 v 0.014 h 0.0041 v 0.5426 l -0.0041,5.3e-4 v 9.30072 h 177.49821 l -55.17802,-6.827 -22.1909,-18.35753 V 121.34972 C 173.15852,114.52116 158.64682,111.132 144.16381,111.14466 Z m 73.76035,5.84512 4.74183,11.95483 h -9.68365 z m -85.93997,14.53296 v 12.65453 l -12.19719,0.28319 v -11.70937 c 3.84267,-0.55815 7.97943,-0.92024 12.19719,-1.22835 z m 24.03161,0 c 4.21777,0.30811 8.35451,0.6702 12.19718,1.22835 v 11.70937 l -12.19718,-0.28319 z m -25.28993,1.44436 c -3.3858,0.24734 -6.70643,0.53792 -9.79113,0.98599 v 9.39994 l 9.79113,-0.22789 z m 26.61543,0 v 10.15804 l 9.79114,0.22789 v -9.39994 c -3.0847,-0.44807 -6.40534,-0.73865 -9.79114,-0.98599 z m -87.516105,6.4053 v 11.28975 h 2.53318 V 139.3724 Z m 24.870833,0 v 11.28975 h 2.53318 V 139.3724 Z m -21.602816,3.94291 v 1.30483 h 20.833353 v -1.30483 z m 0,5.29166 v 1.30483 h 20.833353 v -1.30483 z m 248.114068,6.71897 -7.01974,16.17473 h 3.0236 l 1.26866,-3.04478 h 5.15884 l 1.2051,3.04478 h 3.55224 l -7.01974,-16.17473 z m 20.72481,0.4439 c -1.49411,0 -2.81202,0.34544 -3.95375,1.03612 -1.14173,0.67657 -2.02962,1.62777 -2.66393,2.85409 -0.63428,1.2263 -0.95186,2.6217 -0.95186,4.1863 0,1.42365 0.31758,2.73498 0.95186,3.9331 0.63431,1.18402 1.55003,2.12812 2.74815,2.8329 1.19811,0.70477 2.60771,1.0573 4.22871,1.0573 1.01486,0 1.95237,-0.16207 2.81222,-0.48628 0.85981,-0.32419 1.48685,-0.64835 1.88154,-0.97255 l -1.26815,-2.74867 c -0.35238,0.3383 -0.83204,0.63409 -1.43815,0.88781 -0.60611,0.23962 -1.28937,0.35966 -2.05052,0.35966 -0.94441,0 -1.76897,-0.21172 -2.47374,-0.63459 -0.70481,-0.42286 -1.24775,-1.00787 -1.62833,-1.75493 -0.38058,-0.76115 -0.57052,-1.64196 -0.57052,-2.64273 0,-0.91619 0.20412,-1.74788 0.61287,-2.49494 0.40879,-0.76115 0.95833,-1.36034 1.64902,-1.7973 0.69067,-0.43696 1.43066,-0.65526 2.22001,-0.65526 1.16994,0 2.31209,0.42292 3.42562,1.26866 l 1.2051,-2.89647 c -0.60611,-0.38057 -1.31114,-0.69816 -2.11461,-0.95188 -0.80343,-0.25372 -1.67713,-0.38034 -2.62154,-0.38034 z m -116.57221,0.16899 v 15.56184 h 3.06598 v -6.3221 h 6.95616 v 6.3221 h 3.06596 v -15.56184 h -3.06596 v 6.27971 h -6.95616 v -6.27971 z m 22.84099,0 v 15.56184 h 3.06545 v -15.56184 z m 11.78998,0 v 2.96002 h 3.63647 v 12.60182 h 3.06596 v -12.60182 h 3.78427 v -2.96002 z m 19.19005,0 v 15.56184 h 10.90992 v -2.96055 h -7.84396 v -3.36155 h 6.68125 v -2.96003 h -6.68125 v -3.31969 h 7.54785 v -2.96002 z m 19.82616,0 v 15.56184 h 3.06547 v -6.11074 h 5.77225 v -2.96003 h -5.77225 v -3.53105 h 6.66057 v -2.96002 z m 56.79396,0 v 15.56184 h 10.90993 v -2.96055 h -7.84397 v -3.36155 h 6.68126 v -2.96003 h -6.68126 v -3.31969 h 7.54785 v -2.96002 z m -159.15617,0.10593 6.25853,16.17472 4.31291,-9.26093 3.70055,9.21856 6.00429,-16.13235 h -3.29799 l -2.64325,8.64753 -3.48867,-8.64753 h -3.04427 l 1.22629,3.06596 -2.36834,5.94125 -3.06544,-9.00721 z m -64.66066,2.69699 v 12.17704 H 119.787 v -11.70885 z m 24.03161,0 12.19718,0.46819 v 11.70885 H 156.0158 Z m -25.20156,1.3808 -9.64954,0.37 v 9.26352 h 9.64954 z m 26.50536,0 v 9.63352 h 9.64953 v -9.26352 z m 163.80293,1.96887 1.5012,3.78479 h -3.06598 z m -238.783371,0.16691 4.271057,7.1851 1.345655,-1.18391 1.273824,2.84583 2.684074,2.3709 v 5.41931 H 73.692658 v -6.80165 l 1.471229,-2.03347 0.524515,1.49397 1.042315,-0.32453 2.756421,-5.41362 0.822172,-0.29508 z m -8.646501,17.25322 h 18.221111 v 4.1212 H 73.692658 Z"
         id="path916-6" />
    </g>
  </g>
</svg>
