<?xml version="1.0" encoding="UTF-8" standalone="no"?>
<!-- Created with Inkscape (http://www.inkscape.org/) -->

<svg
   xmlns:dc="http://purl.org/dc/elements/1.1/"
   xmlns:cc="http://creativecommons.org/ns#"
   xmlns:rdf="http://www.w3.org/1999/02/22-rdf-syntax-ns#"
   xmlns:svg="http://www.w3.org/2000/svg"
   xmlns="http://www.w3.org/2000/svg"
   xmlns:sodipodi="http://sodipodi.sourceforge.net/DTD/sodipodi-0.dtd"
   xmlns:inkscape="http://www.inkscape.org/namespaces/inkscape"
   width="290.04041"
   height="148.62236"
   viewBox="0 0 76.73986 39.322998"
   version="1.1"
   id="svg8"
   sodipodi:docname="logo.svg"
   inkscape:version="0.92.2 2405546, 2018-03-11">
  <defs
     id="defs2">
    <filter
       inkscape:collect="always"
       style="color-interpolation-filters:sRGB"
       id="filter984"
       x="-0.035467982"
       width="1.070936"
       y="-0.074226804"
       height="1.1484536">
      <feGaussianBlur
         inkscape:collect="always"
         stdDeviation="1.0589677"
         id="feGaussianBlur986" />
    </filter>
  </defs>
  <sodipodi:namedview
     id="base"
     pagecolor="#ffffff"
     bordercolor="#666666"
     borderopacity="1.0"
     inkscape:pageopacity="0.0"
     inkscape:pageshadow="2"
     inkscape:zoom="2"
     inkscape:cx="107.14092"
     inkscape:cy="92.999342"
     inkscape:document-units="mm"
     inkscape:current-layer="layer1"
     showgrid="false"
     inkscape:window-width="1920"
     inkscape:window-height="1012"
     inkscape:window-x="0"
     inkscape:window-y="28"
     inkscape:window-maximized="0"
     inkscape:snap-others="false"
     inkscape:object-nodes="false"
     inkscape:snap-nodes="false"
     fit-margin-top="0"
     fit-margin-left="0"
     fit-margin-right="0"
     fit-margin-bottom="0"
     units="px"
     showguides="true" />
  <metadata
     id="metadata5">
    <rdf:RDF>
      <cc:Work
         rdf:about="">
        <dc:format>image/svg+xml</dc:format>
        <dc:type
           rdf:resource="http://purl.org/dc/dcmitype/StillImage" />
        <dc:title></dc:title>
      </cc:Work>
    </rdf:RDF>
  </metadata>
  <g
     inkscape:label="Base"
     inkscape:groupmode="layer"
     id="layer1"
     style="display:inline;opacity:1"
     transform="translate(-121.84881,-124.00523)">
    <path
       style="display:inline;opacity:0.9020004;fill:#000000;fill-opacity:1;stroke:none;stroke-width:0.80000001;stroke-linecap:butt;stroke-linejoin:miter;stroke-miterlimit:4;stroke-dasharray:none;stroke-opacity:1;filter:url(#filter984)"
       d="m 148.58228,126.54721 c -0.26503,0.007 -0.52651,0.0887 -0.78534,0.22551 v 0.30461 h 1.59211 v -0.30461 c -0.27316,-0.16388 -0.54175,-0.23228 -0.80677,-0.22551 z m -0.7391,0.75342 v 1.52641 h 0.14444 v -1.52641 z m 0.33862,0 v 1.41016 h 0.14444 v -1.41016 z m 0.33897,0 v 1.38115 h 0.14444 v -1.38115 z m 0.33897,0 v 1.41016 h 0.14444 v -1.41016 z m 0.33909,0 v 1.52641 h 0.14397 v -1.52641 z m -0.62494,1.62158 c -0.23269,0.004 -0.48588,0.067 -0.76892,0.21515 v 3.40926 c 0.5412,0.0607 1.15394,0.1742 1.58524,0.27934 v -3.6886 c -0.25182,-0.12976 -0.51715,-0.22069 -0.81632,-0.21515 z m -2.54495,3.99786 c -3.74891,-0.0128 -7.50514,1.28082 -9.51911,3.40916 v 1.99445 c 2.61257,-3.182 13.14127,-5.24375 18.22387,0 v -1.99445 c -2.09475,-2.36945 -5.3969,-3.39786 -8.70476,-3.40916 z m -0.43775,3.25179 c -0.0282,1.8e-4 -0.0564,3.9e-4 -0.0845,6.9e-4 -0.5679,0.006 -1.0755,0.0397 -1.0755,0.0397 v 5.00219 c 0,0 0.52953,-0.0454 1.06874,-0.0694 0.0267,-8.2e-4 0.0534,-0.002 0.0801,-0.003 0.005,-2e-4 0.0104,-5e-4 0.0156,-6.9e-4 0.005,2e-4 0.0104,5e-4 0.0156,6.9e-4 0.0268,8.2e-4 0.0535,0.002 0.0801,0.003 0.53921,0.024 1.06875,0.0694 1.06875,0.0694 v -5.00219 c 0,0 -0.50772,-0.0339 -1.07562,-0.0397 -0.0281,-2.9e-4 -0.0561,-5e-4 -0.0843,-6.9e-4 -10e-4,-1e-5 -0.003,0 -0.005,0 -0.001,0 -0.003,-1e-5 -0.005,0 z m -1.94145,0.10786 c 0,0 -0.56425,0.0544 -1.07771,0.14036 -0.51355,0.086 -0.92291,0.2056 -0.92291,0.2056 v 4.9952 c 0,0 0.57997,-0.10313 1.06782,-0.18463 0.48783,-0.0815 0.9328,-0.14152 0.9328,-0.14152 z m 3.89198,0 v 5.01501 c 0,0 0.44486,0.06 0.93269,0.14152 0.48785,0.0815 1.06793,0.18463 1.06793,0.18463 v -4.9952 c 0,0 -0.40936,-0.11956 -0.92291,-0.2056 -0.51346,-0.086 -1.07771,-0.14036 -1.07771,-0.14036 z m -6.8805,0.58802 c -0.0897,0.0276 -0.19689,0.0615 -0.31696,0.10168 -0.5143,0.17212 -1.05069,0.4741 -1.05069,0.4741 v 4.81465 c 0,0 0.79573,-0.22005 1.29135,-0.35528 0.17565,-0.0479 0.13254,-0.0934 0.29587,-0.13372 v -4.90143 z m 9.64945,0 v 4.90143 c 0.16334,0.0403 0.12023,0.0858 0.29587,0.13372 0.49563,0.13523 1.29135,0.35528 1.29135,0.35528 v -4.81465 c 0,0 -0.53651,-0.30198 -1.05081,-0.4741 -0.12007,-0.0402 -0.22716,-0.0741 -0.31683,-0.10168 z m -11.46638,0.80758 c 0,0 -0.31637,0.10161 -0.52557,0.2367 -0.30238,0.19517 -0.53723,0.47456 -0.53723,0.47456 v 4.49688 c 0,0 0.47455,-0.17463 0.78848,-0.30344 0.21831,-0.0895 0.27432,-0.15959 0.27432,-0.15959 z m 13.50288,0 v 4.74511 c 0,0 0.056,0.0701 0.27432,0.15959 0.31393,0.12881 0.78848,0.30344 0.78848,0.30344 v -4.49688 c 0,0 -0.23485,-0.27939 -0.53722,-0.47456 -0.20921,-0.13509 -0.52558,-0.2367 -0.52558,-0.2367 z m 9.94183,0.93141 -4.99799,11.51648 h 2.15274 l 0.90322,-2.16779 h 3.67323 l 0.85802,2.16779 h 2.52911 l -4.998,-11.51648 z m -24.80012,0.0331 c 0,0 -0.21265,0.13531 -0.3328,0.2827 -0.12013,0.14738 -0.22213,0.30671 -0.22213,0.30671 v 4.15232 l 0.55493,-0.34386 z m 16.21359,0 v 4.39787 l 0.55505,0.34386 v -4.15233 c 0,0 -0.10201,-0.15932 -0.22214,-0.3067 -0.12015,-0.14739 -0.33291,-0.28271 -0.33291,-0.2827 z m 38.74681,0.28305 c -1.06383,0 -2.00227,0.24593 -2.8152,0.7377 -0.81292,0.48173 -1.44521,1.15916 -1.89683,2.0323 -0.4516,0.87315 -0.67736,1.86672 -0.67736,2.98072 0,1.01365 0.22576,1.94699 0.67736,2.80006 0.45162,0.84303 1.10399,1.51547 1.95705,2.01728 0.85307,0.5018 1.85674,0.75272 3.01089,0.75272 0.72261,0 1.38994,-0.11548 2.00215,-0.34631 0.6122,-0.23083 1.05878,-0.46167 1.3398,-0.6925 l -0.90322,-1.95706 c -0.2509,0.24087 -0.59211,0.45163 -1.02367,0.63228 -0.43155,0.17062 -0.9183,0.25592 -1.46025,0.25592 -0.67241,0 -1.25956,-0.15053 -1.76136,-0.45161 -0.50181,-0.30108 -0.88816,-0.7175 -1.15914,-1.24941 -0.27097,-0.54195 -0.40653,-1.16925 -0.40653,-1.88181 0,-0.65235 0.14554,-1.24448 0.43659,-1.77639 0.29104,-0.54195 0.68251,-0.96846 1.17428,-1.27958 0.49176,-0.31112 1.01867,-0.46676 1.58069,-0.46676 0.83299,0 1.64586,0.30118 2.43872,0.90334 l 0.85814,-2.06247 c -0.43156,-0.27098 -0.93339,-0.49682 -1.50545,-0.67748 -0.57205,-0.18065 -1.19424,-0.27094 -1.86666,-0.27094 z m -20.37046,0.0602 c -1.04375,0.0502 -1.88169,0.36633 -2.51397,0.94843 -0.62223,0.58209 -0.93338,1.34982 -0.93338,2.30324 0,0.65235 0.15052,1.19434 0.4516,1.62589 0.31112,0.43155 0.6774,0.76279 1.09892,0.99362 0.42152,0.23082 0.94842,0.47164 1.58069,0.72255 1.07387,0.42151 1.61087,0.91836 1.61087,1.49042 0,0.44158 -0.17061,0.76272 -0.51183,0.96344 -0.34123,0.19068 -0.74268,0.28597 -1.20434,0.28597 -0.39141,0 -0.83301,-0.0903 -1.32478,-0.27094 -0.49176,-0.18065 -0.92837,-0.41149 -1.30975,-0.6925 l -0.96344,1.70113 c 0.56202,0.40145 1.16924,0.70251 1.82159,0.90322 0.65234,0.19069 1.30969,0.28609 1.97208,0.28609 0.79285,0 1.47527,-0.14054 2.04733,-0.42155 0.57206,-0.29105 1.00356,-0.67741 1.29461,-1.15914 0.30108,-0.49177 0.45172,-1.02366 0.45172,-1.59572 0,-0.66239 -0.12545,-1.20937 -0.37636,-1.64092 -0.24086,-0.43156 -0.54702,-0.76777 -0.91836,-1.00864 -0.37134,-0.2509 -0.81792,-0.47176 -1.3398,-0.66245 -0.64232,-0.24086 -1.15913,-0.49166 -1.55053,-0.7526 -0.38137,-0.27097 -0.57205,-0.58213 -0.57205,-0.93339 0,-0.38138 0.13044,-0.66746 0.39138,-0.85814 0.27098,-0.19068 0.64724,-0.28598 1.12897,-0.28598 0.71256,0 1.55062,0.2659 2.51408,0.79781 l 0.82798,-1.67097 c -0.52188,-0.34122 -1.05876,-0.60213 -1.61075,-0.78278 -0.55199,-0.19068 -1.23952,-0.28609 -2.06248,-0.28609 z m 5.72032,0.0602 v 11.07989 h 2.18292 v -3.5227 h 1.46025 l 2.33342,3.52273 h 2.54413 l -2.5743,-4.01954 c 0.59213,-0.34122 1.02874,-0.80789 1.30975,-1.40002 0.29105,-0.60217 0.43659,-1.24443 0.43659,-1.92689 0,-1.15414 -0.38137,-2.06242 -1.14412,-2.7248 -0.7527,-0.67242 -1.81661,-1.00864 -3.19156,-1.00864 z m 2.18292,2.10756 h 1.56567 c 0.66238,0 1.10898,0.18569 1.3398,0.55702 0.23084,0.3613 0.3462,0.74267 0.3462,1.14412 0,0.40144 -0.13544,0.77781 -0.40642,1.12908 -0.27097,0.34123 -0.70259,0.51183 -1.29472,0.51183 h -1.55053 z m -34.3798,0.95564 v 1.2e-4 c -3.26464,0.002 -6.5228,0.77252 -9.09243,2.30033 v 6.7964 l -5.98975,-0.0296 -0.54165,0.39721 v 1.2154 l -5.5781,3.90852 h 0.54946 v 0.74981 l -0.54946,0.40827 c -0.007,0.97577 -0.01,1.9516 -0.01,2.92738 2.93143,-2e-5 5.8628,-0.002 8.79423,-0.002 v -1.85234 h 1.06805 v 1.86073 h 34.34211 l -10.64854,-1.89661 -3.21288,-3.78026 V 144.4068 c -2.59571,-1.53923 -5.86681,-2.30319 -9.13144,-2.30033 z m 16.62652,1.31755 1.06874,2.69475 h -2.1828 z m -19.37195,3.27601 v 2.85247 l -2.74938,0.0638 v -2.63942 c 0.86618,-0.12581 1.79865,-0.20743 2.74938,-0.27688 z m 5.41699,0 c 0.95074,0.0695 1.8832,0.15107 2.74939,0.27688 v 2.63942 l -2.74939,-0.0638 z m -5.81094,0.44253 c -0.68688,0.0502 -1.36061,0.10922 -1.98641,0.20011 v 1.90686 l 1.98641,-0.0462 z m 6.22004,0 v 2.06084 l 1.98641,0.0462 v -1.90684 c -0.6258,-0.0909 -1.29953,-0.14995 -1.98641,-0.20012 z m -17.23865,1.20818 -0.57101,0.40128 v 2.14286 l 0.57101,-0.40129 z m 0.64183,0.98639 -0.4183,0.29401 h 4.29001 l 0.41818,-0.2939 v -1.1e-4 z m 0,0.82005 -0.4183,0.29401 h 4.29001 l 0.41818,-0.29389 v -1.2e-4 z m 53.42374,1.90825 -1.58233,3.64596 h 0.68155 l 0.28597,-0.68632 h 1.16286 l 0.27164,0.68632 h 0.80072 l -1.58233,-3.64596 z m 4.67161,0.10006 c -0.3368,0 -0.63387,0.0779 -0.89123,0.23355 -0.25736,0.15251 -0.4575,0.36692 -0.60047,0.64335 -0.14298,0.27641 -0.21445,0.59107 -0.21446,0.94375 1e-5,0.32091 0.0715,0.61638 0.21446,0.88645 0.14297,0.26689 0.34951,0.4797 0.61958,0.63857 0.27006,0.15886 0.5878,0.23832 0.95318,0.23832 0.22877,0 0.43999,-0.0365 0.6338,-0.1096 0.19381,-0.0731 0.33527,-0.14615 0.42424,-0.21923 l -0.28597,-0.61958 c -0.0795,0.0763 -0.18744,0.14293 -0.32406,0.20012 -0.13662,0.054 -0.29076,0.0811 -0.46233,0.0811 -0.21288,0 -0.39875,-0.0477 -0.55761,-0.14304 -0.15886,-0.0953 -0.28115,-0.22707 -0.36693,-0.39546 -0.0858,-0.17157 -0.12871,-0.37024 -0.12871,-0.59583 0,-0.20651 0.046,-0.39398 0.13815,-0.56238 0.0921,-0.17157 0.21613,-0.30652 0.37181,-0.40502 0.15569,-0.0985 0.3225,-0.14781 0.50042,-0.14781 0.26372,0 0.52106,0.0953 0.77207,0.28596 l 0.27163,-0.65289 c -0.13662,-0.0858 -0.29543,-0.15726 -0.47653,-0.21445 -0.18111,-0.0572 -0.37816,-0.0859 -0.59104,-0.0859 z m -26.27658,0.0381 v 3.50781 h 0.69099 v -1.42507 h 1.568 v 1.42507 h 0.6911 v -3.50781 h -0.6911 v 1.41551 h -1.568 v -1.41551 z m 5.1485,0 v 3.50781 h 0.69111 v -3.50781 z m 2.65759,0 v 0.66733 h 0.81971 v 2.84048 h 0.6911 v -2.84048 h 0.85313 v -0.66733 z m 4.32566,0 v 3.50781 h 2.45921 v -0.66722 h -1.76811 v -0.75785 h 1.50602 v -0.66723 h -1.50602 v -0.74818 h 1.70138 v -0.66733 z m 4.46904,0 v 3.50781 h 0.6911 v -1.37743 h 1.30102 v -0.66722 h -1.30102 v -0.79582 h 1.50126 v -0.66734 z m 12.802,0 v 3.50781 h 2.45921 v -0.66722 h -1.76812 v -0.75785 h 1.50604 v -0.66723 h -1.50604 v -0.74818 h 1.70138 v -0.66733 z m -35.87559,0.0239 1.41074,3.64597 0.9723,-2.08752 0.83403,2.07796 1.35354,-3.63641 h -0.74352 l -0.5957,1.94926 -0.78639,-1.94926 h -0.68632 l 0.27641,0.6911 -0.53373,1.33923 -0.6911,-2.03033 z m -14.57524,0.60805 v 2.74484 h -2.74938 v -2.63931 z m 5.41699,0 2.74939,0.10553 v 2.63931 h -2.74939 z m -14.60796,0.0889 1.12559,1.89357 0.35469,-0.31195 0.33571,0.74994 0.7073,0.62481 v 1.42822 h -4.80196 v -1.79246 l 0.38778,-0.53595 0.13826,0.39371 0.27467,-0.0855 0.7264,-1.4267 0.21666,-0.0778 z m 8.81857,0.33082 -1.95763,0.0751 v 1.87924 h 1.95763 z m 6.19208,0 v 1.95437 h 1.95764 v -1.87924 z m 36.81422,0.33536 0.33838,0.85301 h -0.69098 z m -54.10354,3.88068 h 4.80196 v 1.08609 h -4.80196 z"
       id="path5065-7"
       inkscape:connector-curvature="0" />
    <path
       style="fill:none;fill-opacity:1;stroke:#000000;stroke-width:0.69999999;stroke-linecap:butt;stroke-linejoin:miter;stroke-miterlimit:4;stroke-dasharray:none;stroke-opacity:1"
       d="m 148.58228,125.48887 c -0.26503,0.007 -0.52651,0.0887 -0.78534,0.22551 v 0.30461 h 1.59211 v -0.30461 c -0.27316,-0.16388 -0.54175,-0.23228 -0.80677,-0.22551 z m -0.7391,0.75342 v 1.52641 h 0.14444 v -1.52641 z m 0.33862,0 v 1.41016 h 0.14444 v -1.41016 z m 0.33897,0 v 1.38115 h 0.14444 v -1.38115 z m 0.33897,0 v 1.41016 h 0.14444 v -1.41016 z m 0.33909,0 v 1.52641 h 0.14397 v -1.52641 z m -0.62494,1.62158 c -0.23269,0.004 -0.48588,0.067 -0.76892,0.21515 v 3.40926 c 0.5412,0.0607 1.15394,0.1742 1.58524,0.27934 v -3.6886 c -0.25182,-0.12976 -0.51715,-0.22069 -0.81632,-0.21515 z m -2.54495,3.99786 c -3.74891,-0.0128 -7.50514,1.28082 -9.51911,3.40916 v 1.99445 c 2.61257,-3.182 13.14127,-5.24375 18.22387,0 v -1.99445 c -2.09475,-2.36945 -5.3969,-3.39786 -8.70476,-3.40916 z m -0.43775,3.25179 c -0.0282,1.8e-4 -0.0564,4e-4 -0.0845,6.9e-4 -0.5679,0.006 -1.0755,0.0397 -1.0755,0.0397 v 5.00219 c 0,0 0.52953,-0.0454 1.06874,-0.0694 0.0267,-8.3e-4 0.0534,-0.002 0.0801,-0.003 0.005,-2e-4 0.0104,-4.9e-4 0.0156,-6.9e-4 0.005,2e-4 0.0104,4.9e-4 0.0156,6.9e-4 0.0268,8.3e-4 0.0535,0.002 0.0801,0.003 0.53921,0.024 1.06875,0.0694 1.06875,0.0694 v -5.00219 c 0,0 -0.50772,-0.0339 -1.07562,-0.0397 -0.0281,-2.9e-4 -0.0561,-5.1e-4 -0.0843,-6.9e-4 -10e-4,-1e-5 -0.003,0 -0.005,0 -0.001,0 -0.003,-1e-5 -0.005,0 z m -1.94145,0.10786 c 0,0 -0.56425,0.0544 -1.07771,0.14036 -0.51355,0.086 -0.92291,0.2056 -0.92291,0.2056 v 4.9952 c 0,0 0.57997,-0.10313 1.06782,-0.18463 0.48783,-0.0815 0.9328,-0.14152 0.9328,-0.14152 z m 3.89198,0 v 5.01501 c 0,0 0.44486,0.06 0.93269,0.14152 0.48785,0.0815 1.06793,0.18463 1.06793,0.18463 v -4.9952 c 0,0 -0.40936,-0.11956 -0.92291,-0.2056 -0.51346,-0.086 -1.07771,-0.14036 -1.07771,-0.14036 z m -6.8805,0.58802 c -0.0897,0.0276 -0.19689,0.0615 -0.31696,0.10168 -0.5143,0.17212 -1.05069,0.4741 -1.05069,0.4741 v 4.81465 c 0,0 0.79573,-0.22005 1.29135,-0.35528 0.17565,-0.0479 0.13254,-0.0934 0.29587,-0.13372 v -4.90143 z m 9.64945,0 v 4.90143 c 0.16334,0.0403 0.12023,0.0858 0.29587,0.13372 0.49563,0.13523 1.29135,0.35528 1.29135,0.35528 v -4.81465 c 0,0 -0.53651,-0.30198 -1.05081,-0.4741 -0.12007,-0.0402 -0.22716,-0.0741 -0.31683,-0.10168 z m -11.46638,0.80758 c 0,0 -0.31637,0.10161 -0.52557,0.2367 -0.30238,0.19517 -0.53723,0.47456 -0.53723,0.47456 v 4.49688 c 0,0 0.47455,-0.17463 0.78848,-0.30344 0.21831,-0.0895 0.27432,-0.15959 0.27432,-0.15959 z m 13.50288,0 v 4.74511 c 0,0 0.056,0.0701 0.27432,0.15959 0.31393,0.12881 0.78848,0.30344 0.78848,0.30344 v -4.49688 c 0,0 -0.23485,-0.27939 -0.53722,-0.47456 -0.20921,-0.13509 -0.52558,-0.2367 -0.52558,-0.2367 z m 9.94183,0.93141 -4.99799,11.51648 h 2.15274 l 0.90322,-2.16779 h 3.67323 l 0.85802,2.16779 h 2.52911 l -4.998,-11.51648 z m -24.80012,0.0331 c 0,0 -0.21265,0.13531 -0.3328,0.2827 -0.12013,0.14738 -0.22213,0.30671 -0.22213,0.30671 v 4.15232 l 0.55493,-0.34386 z m 16.21359,0 v 4.39787 l 0.55505,0.34386 v -4.15233 c 0,0 -0.10201,-0.15932 -0.22214,-0.3067 -0.12015,-0.14739 -0.33291,-0.28271 -0.33291,-0.2827 z m 38.74681,0.28305 c -1.06383,0 -2.00227,0.24593 -2.8152,0.7377 -0.81292,0.48173 -1.44521,1.15916 -1.89683,2.0323 -0.4516,0.87315 -0.67736,1.86672 -0.67736,2.98072 0,1.01365 0.22576,1.94699 0.67736,2.80006 0.45162,0.84303 1.10399,1.51547 1.95705,2.01728 0.85307,0.5018 1.85674,0.75272 3.01089,0.75272 0.72261,0 1.38994,-0.11548 2.00215,-0.34631 0.6122,-0.23083 1.05878,-0.46167 1.3398,-0.6925 l -0.90322,-1.95706 c -0.2509,0.24087 -0.59211,0.45163 -1.02367,0.63228 -0.43155,0.17062 -0.9183,0.25592 -1.46025,0.25592 -0.67241,0 -1.25956,-0.15053 -1.76136,-0.45161 -0.50181,-0.30108 -0.88816,-0.7175 -1.15914,-1.24941 -0.27097,-0.54195 -0.40653,-1.16925 -0.40653,-1.88181 0,-0.65235 0.14554,-1.24448 0.43659,-1.77639 0.29104,-0.54195 0.68251,-0.96846 1.17428,-1.27958 0.49176,-0.31112 1.01867,-0.46676 1.58069,-0.46676 0.83299,0 1.64586,0.30118 2.43872,0.90334 l 0.85814,-2.06247 c -0.43156,-0.27098 -0.93339,-0.49682 -1.50545,-0.67748 -0.57205,-0.18065 -1.19424,-0.27094 -1.86666,-0.27094 z m -20.37046,0.0602 c -1.04375,0.0502 -1.88169,0.36633 -2.51397,0.94843 -0.62223,0.58209 -0.93338,1.34982 -0.93338,2.30324 0,0.65235 0.15052,1.19434 0.4516,1.62589 0.31112,0.43155 0.6774,0.76279 1.09892,0.99362 0.42152,0.23082 0.94842,0.47164 1.58069,0.72255 1.07387,0.42151 1.61087,0.91836 1.61087,1.49042 0,0.44158 -0.17061,0.76272 -0.51183,0.96344 -0.34123,0.19068 -0.74268,0.28597 -1.20434,0.28597 -0.39141,0 -0.83301,-0.0903 -1.32478,-0.27094 -0.49176,-0.18065 -0.92837,-0.41149 -1.30975,-0.6925 l -0.96344,1.70113 c 0.56202,0.40145 1.16924,0.70251 1.82159,0.90322 0.65234,0.19069 1.30969,0.28609 1.97208,0.28609 0.79285,0 1.47527,-0.14054 2.04733,-0.42155 0.57206,-0.29105 1.00356,-0.67741 1.29461,-1.15914 0.30108,-0.49177 0.45172,-1.02366 0.45172,-1.59572 0,-0.66239 -0.12545,-1.20937 -0.37636,-1.64092 -0.24086,-0.43156 -0.54702,-0.76777 -0.91836,-1.00864 -0.37134,-0.2509 -0.81792,-0.47176 -1.3398,-0.66245 -0.64232,-0.24086 -1.15913,-0.49166 -1.55053,-0.7526 -0.38137,-0.27097 -0.57205,-0.58213 -0.57205,-0.93339 0,-0.38138 0.13044,-0.66746 0.39138,-0.85814 0.27098,-0.19068 0.64724,-0.28598 1.12897,-0.28598 0.71256,0 1.55062,0.2659 2.51408,0.79781 l 0.82798,-1.67097 c -0.52188,-0.34122 -1.05876,-0.60213 -1.61075,-0.78278 -0.55199,-0.19068 -1.23952,-0.28609 -2.06248,-0.28609 z m 5.72032,0.0602 v 11.07989 h 2.18292 v -3.5227 h 1.46025 l 2.33342,3.52273 h 2.54413 l -2.5743,-4.01954 c 0.59213,-0.34122 1.02874,-0.80789 1.30975,-1.40002 0.29105,-0.60217 0.43659,-1.24443 0.43659,-1.92689 0,-1.15414 -0.38137,-2.06242 -1.14412,-2.7248 -0.7527,-0.67242 -1.81661,-1.00864 -3.19156,-1.00864 z m 2.18292,2.10756 h 1.56567 c 0.66238,0 1.10898,0.18569 1.3398,0.55702 0.23084,0.3613 0.3462,0.74267 0.3462,1.14412 0,0.40144 -0.13544,0.77781 -0.40642,1.12908 -0.27097,0.34123 -0.70259,0.51183 -1.29472,0.51183 h -1.55053 z m -34.3798,0.95564 v 1.2e-4 c -3.26464,0.002 -6.5228,0.77252 -9.09243,2.30033 v 6.7964 l -5.98975,-0.0296 -0.54165,0.39721 v 1.2154 l -5.5781,3.90852 h 0.54946 v 0.74981 l -0.54946,0.40827 c -0.007,0.97577 -0.01,1.9516 -0.01,2.92738 2.93143,-2e-5 5.8628,-0.002 8.79423,-0.002 v -1.85234 h 1.06805 v 1.86073 h 34.34211 l -10.64854,-1.89661 -3.21288,-3.78026 v -10.70316 c -2.59571,-1.53923 -5.86681,-2.30319 -9.13144,-2.30033 z m 16.62652,1.31755 1.06874,2.69475 h -2.1828 z m -19.37195,3.27601 v 2.85247 l -2.74938,0.0638 v -2.63942 c 0.86618,-0.12581 1.79865,-0.20743 2.74938,-0.27688 z m 5.41699,0 c 0.95074,0.0695 1.8832,0.15107 2.74939,0.27688 v 2.63942 l -2.74939,-0.0638 z m -5.81094,0.44253 c -0.68688,0.0502 -1.36061,0.10922 -1.98641,0.20011 v 1.90686 l 1.98641,-0.0462 z m 6.22004,0 v 2.06084 l 1.98641,0.0462 v -1.90684 c -0.6258,-0.0909 -1.29953,-0.14995 -1.98641,-0.20012 z m -17.23865,1.20818 -0.57101,0.40128 v 2.14286 l 0.57101,-0.40129 z m 0.64183,0.98639 -0.4183,0.29401 h 4.29001 l 0.41818,-0.2939 v -1.1e-4 z m 0,0.82005 -0.4183,0.29401 h 4.29001 l 0.41818,-0.29389 v -1.2e-4 z m 53.42374,1.90825 -1.58233,3.64596 h 0.68155 l 0.28597,-0.68632 h 1.16286 l 0.27164,0.68632 h 0.80072 l -1.58233,-3.64596 z m 4.67161,0.10006 c -0.3368,0 -0.63387,0.0779 -0.89123,0.23355 -0.25736,0.15251 -0.4575,0.36692 -0.60047,0.64335 -0.14298,0.27641 -0.21445,0.59107 -0.21446,0.94375 1e-5,0.32091 0.0715,0.61638 0.21446,0.88645 0.14297,0.26689 0.34951,0.4797 0.61958,0.63857 0.27006,0.15886 0.5878,0.23832 0.95318,0.23832 0.22877,0 0.43999,-0.0365 0.6338,-0.1096 0.19381,-0.0731 0.33527,-0.14615 0.42424,-0.21923 l -0.28597,-0.61958 c -0.0795,0.0763 -0.18744,0.14293 -0.32406,0.20012 -0.13662,0.054 -0.29076,0.0811 -0.46233,0.0811 -0.21288,0 -0.39875,-0.0477 -0.55761,-0.14304 -0.15886,-0.0953 -0.28115,-0.22707 -0.36693,-0.39546 -0.0858,-0.17157 -0.12871,-0.37024 -0.12871,-0.59583 0,-0.20651 0.046,-0.39398 0.13815,-0.56238 0.0921,-0.17157 0.21613,-0.30652 0.37181,-0.40502 0.15569,-0.0985 0.3225,-0.14781 0.50042,-0.14781 0.26372,0 0.52106,0.0953 0.77207,0.28596 l 0.27163,-0.65289 c -0.13662,-0.0858 -0.29543,-0.15726 -0.47653,-0.21445 -0.18111,-0.0572 -0.37816,-0.0859 -0.59104,-0.0859 z m -26.27658,0.0381 v 3.50781 h 0.69099 V 153.228 h 1.568 v 1.42507 h 0.6911 v -3.50781 h -0.6911 v 1.41551 h -1.568 v -1.41551 z m 5.1485,0 v 3.50781 h 0.69111 v -3.50781 z m 2.65759,0 v 0.66733 h 0.81971 v 2.84048 h 0.6911 v -2.84048 h 0.85313 v -0.66733 z m 4.32566,0 v 3.50781 h 2.45921 v -0.66722 h -1.76811 V 153.228 h 1.50602 v -0.66723 h -1.50602 v -0.74818 h 1.70138 v -0.66733 z m 4.46904,0 v 3.50781 h 0.6911 v -1.37743 h 1.30102 v -0.66722 h -1.30102 v -0.79582 h 1.50126 v -0.66734 z m 12.802,0 v 3.50781 h 2.45921 v -0.66722 h -1.76812 V 153.228 h 1.50604 v -0.66723 h -1.50604 v -0.74818 h 1.70138 v -0.66733 z m -35.87559,0.0239 1.41074,3.64597 0.9723,-2.08752 0.83403,2.07796 1.35354,-3.63641 h -0.74352 l -0.5957,1.94926 -0.78639,-1.94926 h -0.68632 l 0.27641,0.6911 -0.53373,1.33923 -0.6911,-2.03033 z m -14.57524,0.60805 v 2.74484 h -2.74938 v -2.63931 z m 5.41699,0 2.74939,0.10553 v 2.63931 h -2.74939 z m -14.60796,0.0889 1.12559,1.89357 0.35469,-0.31195 0.33571,0.74994 0.7073,0.62481 v 1.42822 h -4.80196 v -1.79246 l 0.38778,-0.53595 0.13826,0.39371 0.27467,-0.0855 0.7264,-1.4267 0.21666,-0.0778 z m 8.81857,0.33082 -1.95763,0.0751 v 1.87924 h 1.95763 z m 6.19208,0 v 1.95437 h 1.95764 v -1.87924 z m 36.81422,0.33536 0.33838,0.85301 h -0.69098 z m -54.10354,3.88068 h 4.80196 v 1.08609 h -4.80196 z"
       id="path5065"
       inkscape:connector-curvature="0" />
    <path
       style="display:inline;opacity:1;fill:#ffffff;fill-opacity:1;stroke:none;stroke-width:0.80000001;stroke-linecap:butt;stroke-linejoin:miter;stroke-miterlimit:4;stroke-dasharray:none;stroke-opacity:1"
       d="m 148.58228,125.48887 c -0.26503,0.007 -0.52651,0.0887 -0.78534,0.22551 v 0.30461 h 1.59211 v -0.30461 c -0.27316,-0.16388 -0.54175,-0.23228 -0.80677,-0.22551 z m -0.7391,0.75342 v 1.52641 h 0.14444 v -1.52641 z m 0.33862,0 v 1.41016 h 0.14444 v -1.41016 z m 0.33897,0 v 1.38115 h 0.14444 v -1.38115 z m 0.33897,0 v 1.41016 h 0.14444 v -1.41016 z m 0.33909,0 v 1.52641 h 0.14397 v -1.52641 z m -0.62494,1.62158 c -0.23269,0.004 -0.48588,0.067 -0.76892,0.21515 v 3.40926 c 0.5412,0.0607 1.15394,0.1742 1.58524,0.27934 v -3.6886 c -0.25182,-0.12976 -0.51715,-0.22069 -0.81632,-0.21515 z m -2.54495,3.99786 c -3.74891,-0.0128 -7.50514,1.28082 -9.51911,3.40916 v 1.99445 c 2.61257,-3.182 13.14127,-5.24375 18.22387,0 v -1.99445 c -2.09475,-2.36945 -5.3969,-3.39786 -8.70476,-3.40916 z m -0.43775,3.25179 c -0.0282,1.8e-4 -0.0564,3.9e-4 -0.0845,6.9e-4 -0.5679,0.006 -1.0755,0.0397 -1.0755,0.0397 v 5.00219 c 0,0 0.52953,-0.0454 1.06874,-0.0694 0.0267,-8.2e-4 0.0534,-0.002 0.0801,-0.003 0.005,-2e-4 0.0104,-5e-4 0.0156,-6.9e-4 0.005,2e-4 0.0104,5e-4 0.0156,6.9e-4 0.0268,8.2e-4 0.0535,0.002 0.0801,0.003 0.53921,0.024 1.06875,0.0694 1.06875,0.0694 v -5.00219 c 0,0 -0.50772,-0.0339 -1.07562,-0.0397 -0.0281,-2.9e-4 -0.0561,-5e-4 -0.0843,-6.9e-4 -10e-4,-1e-5 -0.003,0 -0.005,0 -0.001,0 -0.003,-1e-5 -0.005,0 z m -1.94145,0.10786 c 0,0 -0.56425,0.0544 -1.07771,0.14036 -0.51355,0.086 -0.92291,0.2056 -0.92291,0.2056 v 4.9952 c 0,0 0.57997,-0.10313 1.06782,-0.18463 0.48783,-0.0815 0.9328,-0.14152 0.9328,-0.14152 z m 3.89198,0 v 5.01501 c 0,0 0.44486,0.06 0.93269,0.14152 0.48785,0.0815 1.06793,0.18463 1.06793,0.18463 v -4.9952 c 0,0 -0.40936,-0.11956 -0.92291,-0.2056 -0.51346,-0.086 -1.07771,-0.14036 -1.07771,-0.14036 z m -6.8805,0.58802 c -0.0897,0.0276 -0.19689,0.0615 -0.31696,0.10168 -0.5143,0.17212 -1.05069,0.4741 -1.05069,0.4741 v 4.81465 c 0,0 0.79573,-0.22005 1.29135,-0.35528 0.17565,-0.0479 0.13254,-0.0934 0.29587,-0.13372 v -4.90143 z m 9.64945,0 v 4.90143 c 0.16334,0.0403 0.12023,0.0858 0.29587,0.13372 0.49563,0.13523 1.29135,0.35528 1.29135,0.35528 v -4.81465 c 0,0 -0.53651,-0.30198 -1.05081,-0.4741 -0.12007,-0.0402 -0.22716,-0.0741 -0.31683,-0.10168 z m -11.46638,0.80758 c 0,0 -0.31637,0.10161 -0.52557,0.2367 -0.30238,0.19517 -0.53723,0.47456 -0.53723,0.47456 v 4.49688 c 0,0 0.47455,-0.17463 0.78848,-0.30344 0.21831,-0.0895 0.27432,-0.15959 0.27432,-0.15959 z m 13.50288,0 v 4.74511 c 0,0 0.056,0.0701 0.27432,0.15959 0.31393,0.12881 0.78848,0.30344 0.78848,0.30344 v -4.49688 c 0,0 -0.23485,-0.27939 -0.53722,-0.47456 -0.20921,-0.13509 -0.52558,-0.2367 -0.52558,-0.2367 z m 9.94183,0.93141 -4.99799,11.51648 h 2.15274 l 0.90322,-2.16779 h 3.67323 l 0.85802,2.16779 h 2.52911 l -4.998,-11.51648 z m -24.80012,0.0331 c 0,0 -0.21265,0.13531 -0.3328,0.2827 -0.12013,0.14738 -0.22213,0.30671 -0.22213,0.30671 v 4.15232 l 0.55493,-0.34386 z m 16.21359,0 v 4.39787 l 0.55505,0.34386 v -4.15233 c 0,0 -0.10201,-0.15932 -0.22214,-0.3067 -0.12015,-0.14739 -0.33291,-0.28271 -0.33291,-0.2827 z m 38.74681,0.28305 c -1.06383,0 -2.00227,0.24593 -2.8152,0.7377 -0.81292,0.48173 -1.44521,1.15916 -1.89683,2.0323 -0.4516,0.87315 -0.67736,1.86672 -0.67736,2.98072 0,1.01365 0.22576,1.94699 0.67736,2.80006 0.45162,0.84303 1.10399,1.51547 1.95705,2.01728 0.85307,0.5018 1.85674,0.75272 3.01089,0.75272 0.72261,0 1.38994,-0.11548 2.00215,-0.34631 0.6122,-0.23083 1.05878,-0.46167 1.3398,-0.6925 l -0.90322,-1.95706 c -0.2509,0.24087 -0.59211,0.45163 -1.02367,0.63228 -0.43155,0.17062 -0.9183,0.25592 -1.46025,0.25592 -0.67241,0 -1.25956,-0.15053 -1.76136,-0.45161 -0.50181,-0.30108 -0.88816,-0.7175 -1.15914,-1.24941 -0.27097,-0.54195 -0.40653,-1.16925 -0.40653,-1.88181 0,-0.65235 0.14554,-1.24448 0.43659,-1.77639 0.29104,-0.54195 0.68251,-0.96846 1.17428,-1.27958 0.49176,-0.31112 1.01867,-0.46676 1.58069,-0.46676 0.83299,0 1.64586,0.30118 2.43872,0.90334 l 0.85814,-2.06247 c -0.43156,-0.27098 -0.93339,-0.49682 -1.50545,-0.67748 -0.57205,-0.18065 -1.19424,-0.27094 -1.86666,-0.27094 z m -20.37046,0.0602 c -1.04375,0.0502 -1.88169,0.36633 -2.51397,0.94843 -0.62223,0.58209 -0.93338,1.34982 -0.93338,2.30324 0,0.65235 0.15052,1.19434 0.4516,1.62589 0.31112,0.43155 0.6774,0.76279 1.09892,0.99362 0.42152,0.23082 0.94842,0.47164 1.58069,0.72255 1.07387,0.42151 1.61087,0.91836 1.61087,1.49042 0,0.44158 -0.17061,0.76272 -0.51183,0.96344 -0.34123,0.19068 -0.74268,0.28597 -1.20434,0.28597 -0.39141,0 -0.83301,-0.0903 -1.32478,-0.27094 -0.49176,-0.18065 -0.92837,-0.41149 -1.30975,-0.6925 l -0.96344,1.70113 c 0.56202,0.40145 1.16924,0.70251 1.82159,0.90322 0.65234,0.19069 1.30969,0.28609 1.97208,0.28609 0.79285,0 1.47527,-0.14054 2.04733,-0.42155 0.57206,-0.29105 1.00356,-0.67741 1.29461,-1.15914 0.30108,-0.49177 0.45172,-1.02366 0.45172,-1.59572 0,-0.66239 -0.12545,-1.20937 -0.37636,-1.64092 -0.24086,-0.43156 -0.54702,-0.76777 -0.91836,-1.00864 -0.37134,-0.2509 -0.81792,-0.47176 -1.3398,-0.66245 -0.64232,-0.24086 -1.15913,-0.49166 -1.55053,-0.7526 -0.38137,-0.27097 -0.57205,-0.58213 -0.57205,-0.93339 0,-0.38138 0.13044,-0.66746 0.39138,-0.85814 0.27098,-0.19068 0.64724,-0.28598 1.12897,-0.28598 0.71256,0 1.55062,0.2659 2.51408,0.79781 l 0.82798,-1.67097 c -0.52188,-0.34122 -1.05876,-0.60213 -1.61075,-0.78278 -0.55199,-0.19068 -1.23952,-0.28609 -2.06248,-0.28609 z m 5.72032,0.0602 v 11.07989 h 2.18292 v -3.5227 h 1.46025 l 2.33342,3.52273 h 2.54413 l -2.5743,-4.01954 c 0.59213,-0.34122 1.02874,-0.80789 1.30975,-1.40002 0.29105,-0.60217 0.43659,-1.24443 0.43659,-1.92689 0,-1.15414 -0.38137,-2.06242 -1.14412,-2.7248 -0.7527,-0.67242 -1.81661,-1.00864 -3.19156,-1.00864 z m 2.18292,2.10756 h 1.56567 c 0.66238,0 1.10898,0.18569 1.3398,0.55702 0.23084,0.3613 0.3462,0.74267 0.3462,1.14412 0,0.40144 -0.13544,0.77781 -0.40642,1.12908 -0.27097,0.34123 -0.70259,0.51183 -1.29472,0.51183 h -1.55053 z m -34.3798,0.95564 v 1.2e-4 c -3.26464,0.002 -6.5228,0.77252 -9.09243,2.30033 v 6.7964 l -5.98975,-0.0296 -0.54165,0.39721 v 1.2154 l -5.5781,3.90852 h 0.54946 v 0.74981 l -0.54946,0.40827 c -0.007,0.97577 -0.01,1.9516 -0.01,2.92738 2.93143,-2e-5 5.8628,-0.002 8.79423,-0.002 v -1.85234 h 1.06805 v 1.86073 h 34.34211 l -10.64854,-1.89661 -3.21288,-3.78026 v -10.70304 c -2.59571,-1.53923 -5.86681,-2.30319 -9.13144,-2.30033 z m 16.62652,1.31755 1.06874,2.69475 h -2.1828 z m -19.37195,3.27601 v 2.85247 l -2.74938,0.0638 v -2.63942 c 0.86618,-0.12581 1.79865,-0.20743 2.74938,-0.27688 z m 5.41699,0 c 0.95074,0.0695 1.8832,0.15107 2.74939,0.27688 v 2.63942 l -2.74939,-0.0638 z m -5.81094,0.44253 c -0.68688,0.0502 -1.36061,0.10922 -1.98641,0.20011 v 1.90686 l 1.98641,-0.0462 z m 6.22004,0 v 2.06084 l 1.98641,0.0462 v -1.90684 c -0.6258,-0.0909 -1.29953,-0.14995 -1.98641,-0.20012 z m -17.23865,1.20818 -0.57101,0.40128 v 2.14286 l 0.57101,-0.40129 z m 0.64183,0.98639 -0.4183,0.29401 h 4.29001 l 0.41818,-0.2939 v -1.1e-4 z m 0,0.82005 -0.4183,0.29401 h 4.29001 l 0.41818,-0.29389 v -1.2e-4 z m 53.42374,1.90825 -1.58233,3.64596 h 0.68155 l 0.28597,-0.68632 h 1.16286 l 0.27164,0.68632 h 0.80072 l -1.58233,-3.64596 z m 4.67161,0.10006 c -0.3368,0 -0.63387,0.0779 -0.89123,0.23355 -0.25736,0.15251 -0.4575,0.36692 -0.60047,0.64335 -0.14298,0.27641 -0.21445,0.59107 -0.21446,0.94375 1e-5,0.32091 0.0715,0.61638 0.21446,0.88645 0.14297,0.26689 0.34951,0.4797 0.61958,0.63857 0.27006,0.15886 0.5878,0.23832 0.95318,0.23832 0.22877,0 0.43999,-0.0365 0.6338,-0.1096 0.19381,-0.0731 0.33527,-0.14615 0.42424,-0.21923 l -0.28597,-0.61958 c -0.0795,0.0763 -0.18744,0.14293 -0.32406,0.20012 -0.13662,0.054 -0.29076,0.0811 -0.46233,0.0811 -0.21288,0 -0.39875,-0.0477 -0.55761,-0.14304 -0.15886,-0.0953 -0.28115,-0.22707 -0.36693,-0.39546 -0.0858,-0.17157 -0.12871,-0.37024 -0.12871,-0.59583 0,-0.20651 0.046,-0.39398 0.13815,-0.56238 0.0921,-0.17157 0.21613,-0.30652 0.37181,-0.40502 0.15569,-0.0985 0.3225,-0.14781 0.50042,-0.14781 0.26372,0 0.52106,0.0953 0.77207,0.28596 l 0.27163,-0.65289 c -0.13662,-0.0858 -0.29543,-0.15726 -0.47653,-0.21445 -0.18111,-0.0572 -0.37816,-0.0859 -0.59104,-0.0859 z m -26.27658,0.0381 v 3.50781 h 0.69099 V 153.228 h 1.568 v 1.42507 h 0.6911 v -3.50781 h -0.6911 v 1.41551 h -1.568 v -1.41551 z m 5.1485,0 v 3.50781 h 0.69111 v -3.50781 z m 2.65759,0 v 0.66733 h 0.81971 v 2.84048 h 0.6911 v -2.84048 h 0.85313 v -0.66733 z m 4.32566,0 v 3.50781 h 2.45921 v -0.66722 h -1.76811 V 153.228 h 1.50602 v -0.66723 h -1.50602 v -0.74818 h 1.70138 v -0.66733 z m 4.46904,0 v 3.50781 h 0.6911 v -1.37743 h 1.30102 v -0.66722 h -1.30102 v -0.79582 h 1.50126 v -0.66734 z m 12.802,0 v 3.50781 h 2.45921 v -0.66722 h -1.76812 V 153.228 h 1.50604 v -0.66723 h -1.50604 v -0.74818 h 1.70138 v -0.66733 z m -35.87559,0.0239 1.41074,3.64597 0.9723,-2.08752 0.83403,2.07796 1.35354,-3.63641 h -0.74352 l -0.5957,1.94926 -0.78639,-1.94926 h -0.68632 l 0.27641,0.6911 -0.53373,1.33923 -0.6911,-2.03033 z m -14.57524,0.60805 v 2.74484 h -2.74938 v -2.63931 z m 5.41699,0 2.74939,0.10553 v 2.63931 h -2.74939 z m -14.60796,0.0889 1.12559,1.89357 0.35469,-0.31195 0.33571,0.74994 0.7073,0.62481 v 1.42822 h -4.80196 v -1.79246 l 0.38778,-0.53595 0.13826,0.39371 0.27467,-0.0855 0.7264,-1.4267 0.21666,-0.0778 z m 8.81857,0.33082 -1.95763,0.0751 v 1.87924 h 1.95763 z m 6.19208,0 v 1.95437 h 1.95764 v -1.87924 z m 36.81422,0.33536 0.33838,0.85301 h -0.69098 z m -54.10354,3.88068 h 4.80196 v 1.08609 h -4.80196 z"
       id="path5065-6"
       inkscape:connector-curvature="0" />
  </g>
</svg>
