<?xml version="1.0" encoding="UTF-8" standalone="no"?>
<!-- Created with Inkscape (http://www.inkscape.org/) -->

<svg
   xmlns:dc="http://purl.org/dc/elements/1.1/"
   xmlns:cc="http://creativecommons.org/ns#"
   xmlns:rdf="http://www.w3.org/1999/02/22-rdf-syntax-ns#"
   xmlns:svg="http://www.w3.org/2000/svg"
   xmlns="http://www.w3.org/2000/svg"
   xmlns:sodipodi="http://sodipodi.sourceforge.net/DTD/sodipodi-0.dtd"
   xmlns:inkscape="http://www.inkscape.org/namespaces/inkscape"
   width="52.916668mm"
   height="32.153049mm"
   viewBox="0 0 52.916667 32.15305"
   version="1.1"
   id="svg8"
   inkscape:version="0.92.2 2405546, 2018-03-11"
   sodipodi:docname="wildcenter.svg">
  <defs
     id="defs2">
    <filter
       inkscape:collect="always"
       style="color-interpolation-filters:sRGB"
       id="filter1074"
       x="-0.044353236"
       width="1.0887065"
       y="-0.077431008"
       height="1.154862">
      <feGaussianBlur
         inkscape:collect="always"
         stdDeviation="2.1938621"
         id="feGaussianBlur1076" />
    </filter>
  </defs>
  <sodipodi:namedview
     id="base"
     pagecolor="#ffffff"
     bordercolor="#666666"
     borderopacity="1.0"
     inkscape:pageopacity="0.0"
     inkscape:pageshadow="2"
     inkscape:zoom="0.7"
     inkscape:cx="-84.786179"
     inkscape:cy="218.92013"
     inkscape:document-units="mm"
     inkscape:current-layer="layer1"
     showgrid="false"
     fit-margin-top="0"
     fit-margin-left="0"
     fit-margin-right="0"
     fit-margin-bottom="0"
     inkscape:window-width="1600"
     inkscape:window-height="832"
     inkscape:window-x="0"
     inkscape:window-y="28"
     inkscape:window-maximized="0" />
  <metadata
     id="metadata5">
    <rdf:RDF>
      <cc:Work
         rdf:about="">
        <dc:format>image/svg+xml</dc:format>
        <dc:type
           rdf:resource="http://purl.org/dc/dcmitype/StillImage" />
        <dc:title></dc:title>
      </cc:Work>
    </rdf:RDF>
  </metadata>
  <g
     inkscape:label="Layer 1"
     inkscape:groupmode="layer"
     id="layer1"
     transform="translate(-5.6960409,-208.69267)">
    <path
       style="opacity:0.894;fill:#000000;stroke-width:0.26458332;filter:url(#filter1074)"
       d="m 56.94361,235.31736 c -1.334942,-0.40241 -2.299406,-1.33922 -3.143083,-3.05298 -1.484487,-3.01542 -1.32805,-7.04073 0.372226,-9.57784 2.701981,-4.03183 8.685154,-3.14739 9.960742,1.47241 0.303448,1.09899 0.07234,1.35544 -1.227185,1.36171 -0.711859,0.003 -0.883994,-0.12658 -1.13307,-0.85585 -0.825452,-2.41681 -3.240585,-3.28634 -4.728572,-1.70245 -0.991913,1.05584 -1.369127,2.40338 -1.362962,4.86896 0.0085,3.41752 0.971831,5.22824 2.937936,5.52256 1.240975,0.18576 2.546837,-0.67446 3.078496,-2.02793 0.402828,-1.0255 0.445421,-1.05214 1.567783,-0.9803 1.132539,0.0725 1.150581,0.0884 0.983308,0.8676 -0.689501,3.21184 -4.03357,5.09045 -7.305619,4.10411 z m 10.109369,-7.4114 v -7.40833 h 4.7625 4.7625 v 1.05833 1.05833 h -3.583003 -3.505732 v 2.05052 2.12563 h 2.921548 2.844271 v 0.98324 0.98324 h -2.844271 -2.921548 v 2.19177 2.19047 h 3.583006 3.505729 v 1.12445 1.05065 h -4.7625 -4.7625 z m 12.435417,0 v -7.40833 h 1.441709 1.441712 l 3.122351,5.22002 3.122353,5.22001 0.07174,-5.22001 0.07174,-5.22002 h 0.920448 0.920449 v 7.40833 7.40833 l -1.256771,-0.006 -1.256771,-0.006 -3.175,-5.41118 c -1.74625,-2.97616 -3.363516,-5.41432 -3.472656,-5.41814 v 5.41701 5.42395 h -1.02526 -0.926041 z m 17.197917,1.05833 v -6.35 h -1.984375 -1.984375 v -1.05833 -1.05833 h 5.439931 5.439926 l -0.0821,0.99219 -0.0821,0.99218 -1.91823,0.0777 -1.918226,0.0777 v 6.33841 6.3384 H 98.141558 96.68635 Z m 8.995827,-1.05833 v -7.40833 h 4.77847 4.69638 v 0.99219 1.06608 h -3.59882 -3.43962 v 2.11666 2.11787 h 2.92137 2.84428 v 0.99219 0.91709 h -2.91042 -2.85523 v 2.24896 2.24896 h 3.51669 3.57187 v 1.05833 1.05833 h -4.7625 -4.7625 z m 12.43542,0 v -7.40833 h 4.10954 c 4.41492,0 5.52371,0.23644 6.48857,1.38364 0.71562,0.85086 1.1102,2.46596 0.90261,3.69464 -0.18666,1.10487 -1.49691,2.85922 -2.13542,2.85922 -0.56567,0 -0.46514,0.44642 0.82116,3.64649 0.65484,1.62913 1.19062,3.02295 1.19062,3.09737 0,0.0744 -0.58649,0.1353 -1.30332,0.1353 H 126.888 l -1.07793,-2.79069 c -0.59286,-1.53488 -0.93932,-3.16871 -1.07793,-3.16871 h -2.11666 -2.11667 v 2.9167 3.0427 h -1.19063 -1.19062 z m 7.33092,-1.11011 c 1.3251,-0.46193 1.88414,-1.96568 1.17267,-3.19723 -0.54776,-0.94814 -1.78441,-1.3069 -4.13797,-1.20041 l -1.89138,0.0838 v 1.95962 2.35422 c 0.16831,0.43861 3.66165,0.41661 4.85661,0 z M 55.809079,216.64532 c -2.177978,-0.74876 -3.509999,-3.00351 -3.220151,-5.45085 0.312214,-2.63613 2.423359,-4.53077 5.04852,-4.53077 1.565952,0 2.5859,0.46088 3.776909,1.70667 3.735202,3.90699 -0.428975,10.05447 -5.605278,8.27495 z M 18.744968,216.132 c -0.04706,-0.14552 -1.233136,-4.61036 -2.635713,-9.92187 -1.40258,-5.31151 -3.134649,-11.85305 -3.849045,-14.53676 -0.714396,-2.68371 -1.2989,-4.97566 -1.2989,-5.09323 0,-0.11757 1.900412,-0.21376 4.223136,-0.21376 h 4.223134 l 0.261485,0.99219 c 0.143817,0.5457 1.054695,4.2664 2.024176,8.26823 0.969479,4.00182 1.856103,7.37682 1.970273,7.49999 0.114173,0.12318 0.331946,-0.35307 0.483947,-1.05833 0.151998,-0.70526 1.06734,-4.52674 2.034096,-8.49219 l 1.757733,-7.20989 3.615698,0.001 3.615698,0.001 2.088417,8.2668 c 1.148629,4.54674 2.17842,8.36791 2.28842,8.49148 0.110003,0.12356 1.130768,-3.59714 2.268373,-8.26823 l 2.068367,-8.49269 h 3.506264 c 2.693533,0 3.478049,0.0767 3.38455,0.33073 -0.145328,0.39489 -7.799184,29.30642 -7.799184,29.46047 0,0.0587 -1.756172,0.10606 -3.902604,0.10526 l -3.902603,-0.001 -1.959214,-7.73762 c -1.077565,-4.25581 -2.047906,-7.97586 -2.156311,-8.26691 -0.26138,-0.70174 -0.166114,-1.03227 -2.249596,7.80521 -0.977758,4.14735 -1.831322,7.6836 -1.896812,7.85834 -0.152585,0.40715 -8.034472,0.61129 -8.163785,0.21145 z m 47.514259,-14.75052 2e-6,-15.0151 h 4.497917 4.497917 v 11.37708 11.37708 h 6.092883 6.092883 l -0.07361,3.57837 -0.07361,3.57837 -10.517191,0.0596 -10.51719,0.0597 z m 24.870836,-0.0866 v -14.96939 l 8.003648,0.10222 c 8.856679,0.11312 9.514819,0.22363 12.414709,2.08448 2.67742,1.71809 5.30668,5.72925 6.01614,9.17813 0.40231,1.95573 0.35184,5.39733 -0.11135,7.59375 -1.08665,5.15278 -4.98855,9.25354 -10.06227,10.57508 -1.21609,0.31675 -3.15938,0.40512 -8.908133,0.40512 h -7.352744 z m 13.800667,7.6711 c 1.00609,-0.51975 2.25579,-2.13155 2.74071,-3.5348 0.66758,-1.93186 0.79605,-5.15387 0.28543,-7.15857 -0.94596,-3.71387 -2.70594,-5.29167 -5.90266,-5.29167 h -1.66373 v 8.32119 8.32119 l 1.91823,-0.14688 c 1.05502,-0.0808 2.23493,-0.31048 2.62202,-0.51046 z m -50.860432,-4.24415 -0.376719,-12.07162 -0.164443,-6.28385 h 4.285234 4.285234 l -0.338291,18.35547 z m 2.399348,-28.54191 v -6.48229 h -1.984375 -1.984375 v -1.05833 -1.05834 h 5.423958 5.423959 v 1.05834 1.05833 h -1.984375 -1.984375 v 6.48229 6.48229 h -1.455209 -1.455208 z m 8.995833,-1.05833 v -7.54063 h 1.322917 1.322917 v 3.175 3.175 h 2.910416 2.910417 v -3.175 -3.175 h 1.322917 1.322916 v 7.54063 7.54062 h -1.322916 -1.322917 v -3.30729 -3.30729 h -2.910417 -2.910416 v 3.30729 3.30729 h -1.322917 -1.322917 z m 14.816667,0 v -7.54063 h 4.7625 4.7625 v 1.05834 1.05833 h -3.439583 -3.439584 v 2.11667 2.11666 h 2.778125 2.778125 v 1.05834 1.05833 h -2.778125 -2.778125 v 2.11667 2.11666 h 3.439584 3.439583 v 1.19063 1.19062 h -4.7625 -4.7625 z"
       id="path826-6"
       inkscape:connector-curvature="0"
       sodipodi:nodetypes="scscccsccsccsccccccccccccccccccccccccccccccccccccccccccccccccccccccccccccccccccccccccccccccccccccccccccsscscsscsscccccccccsccccccsscccssssccsccscccscccscsccccsccccccccccccccccccsssccscccccsccccccccccccccccccccccccccccccccccccccccccccccccccccccccccccccccccccccccccccccc"
       transform="matrix(0.40943635,0,0,0.40943635,3.3638747,142.23473)" />
    <path
       style="fill:#ffffff;fill-opacity:1;stroke:#000000;stroke-width:0.65509814;stroke-miterlimit:4;stroke-dasharray:none;stroke-opacity:1"
       d="m 26.678658,237.4989 c -0.546574,-0.16476 -0.941461,-0.54832 -1.286893,-1.25 -0.607803,-1.23462 -0.543751,-2.88273 0.152403,-3.92152 1.10629,-1.65077 3.556018,-1.28865 4.07829,0.60286 0.124243,0.44997 0.02962,0.55497 -0.502454,0.55754 -0.291461,0.002 -0.361939,-0.0518 -0.46392,-0.35042 -0.33797,-0.98954 -1.326813,-1.34554 -1.93605,-0.69705 -0.406124,0.43231 -0.56057,0.98403 -0.558045,1.99354 0.0034,1.39925 0.397902,2.14062 1.202897,2.26113 0.508101,0.0761 1.042768,-0.27615 1.260449,-0.83031 0.164932,-0.41988 0.182371,-0.43078 0.641907,-0.40137 0.463702,0.0297 0.471089,0.0362 0.402602,0.35523 -0.282307,1.31505 -1.65149,2.08421 -2.991186,1.68037 z m 4.139144,-3.03449 v -3.03324 h 1.94994 1.949941 v 0.43331 0.43332 h -1.467012 -1.435374 v 0.83956 0.8703 h 1.196187 1.164548 v 0.40259 0.40257 h -1.164548 -1.196187 v 0.89739 0.89685 h 1.467013 1.435372 v 0.4604 0.43017 h -1.94994 -1.94994 z m 5.091512,0 v -3.03324 h 0.590288 0.590289 l 1.278404,2.13726 1.278405,2.13727 0.02938,-2.13727 0.02938,-2.13726 h 0.376866 0.376864 v 3.03324 3.03324 l -0.514568,-0.002 -0.514568,-0.002 -1.29996,-2.21554 c -0.714978,-1.21855 -1.377145,-2.21681 -1.421832,-2.21838 v 2.21792 2.22076 h -0.419779 -0.379154 z m 7.041451,0.43331 V 232.2978 H 42.13829 41.325815 v -0.43332 -0.43331 h 2.227306 2.227303 l -0.03362,0.40623 -0.03362,0.40624 -0.785394,0.0318 -0.785391,0.0318 v 2.59518 2.59516 h -0.595818 -0.595815 z m 3.683219,-0.43331 v -3.03324 h 1.95648 1.922868 v 0.40623 0.4365 h -1.473488 -1.408305 v 0.86664 0.86712 h 1.196115 1.164551 v 0.40624 0.37549 h -1.191631 -1.169035 v 0.92081 0.92081 h 1.439861 1.462453 v 0.43332 0.43332 h -1.949941 -1.94994 z m 5.091513,0 v -3.03324 h 1.682595 c 1.807629,0 2.261608,0.0968 2.656657,0.56651 0.293,0.34837 0.454556,1.00966 0.369561,1.51272 -0.07642,0.45238 -0.612889,1.17066 -0.874318,1.17066 -0.231607,0 -0.190446,0.18279 0.336212,1.49301 0.268116,0.66703 0.487484,1.23771 0.487484,1.26818 0,0.0305 -0.240131,0.0554 -0.533627,0.0554 h -0.533627 l -0.441344,-1.14262 c -0.242738,-0.62843 -0.384591,-1.29738 -0.441343,-1.29738 h -0.866638 -0.866641 v 1.19421 1.24579 H 52.21298 51.725497 Z m 3.001545,-0.45452 c 0.542544,-0.18914 0.771435,-0.80483 0.480134,-1.30907 -0.224273,-0.3882 -0.730603,-0.53508 -1.694235,-0.49148 l -0.7744,0.0343 v 0.80234 0.9639 c 0.06891,0.17959 1.499212,0.17058 1.988472,0 z m -28.512903,-4.156 c -0.891743,-0.30657 -1.437121,-1.22975 -1.318445,-2.23178 0.12783,-1.07933 0.992209,-1.85505 2.067046,-1.85505 0.641158,0 1.058762,0.18869 1.546404,0.69876 1.529327,1.59967 -0.175638,4.11667 -2.295005,3.38807 z m -15.175393,-0.21017 c -0.01926,-0.0596 -0.504891,-1.88766 -1.0791571,-4.06238 -0.5742664,-2.17472 -1.2834386,-4.85307 -1.5759386,-5.95188 -0.2924997,-1.0988 -0.5318169,-2.03721 -0.5318169,-2.08535 0,-0.0482 0.7780975,-0.0875 1.7291051,-0.0875 h 1.7291045 l 0.107062,0.40623 c 0.05889,0.22344 0.43183,1.74683 0.828771,3.38532 0.39694,1.63849 0.759956,3.02034 0.806702,3.07077 0.04674,0.0504 0.13591,-0.14456 0.198145,-0.43332 0.06223,-0.28876 0.437008,-1.85341 0.832832,-3.47701 l 0.71968,-2.95199 1.480399,4.1e-4 1.480397,4.1e-4 0.855075,3.38473 c 0.470291,1.8616 0.891924,3.42612 0.936962,3.47672 0.04504,0.0506 0.462978,-1.4728 0.928754,-3.38532 l 0.846865,-3.47721 h 1.435592 c 1.102829,0 1.424039,0.0314 1.385757,0.13541 -0.0595,0.16168 -3.193269,11.99912 -3.193269,12.0622 0,0.024 -0.71904,0.0434 -1.597868,0.043 l -1.597868,-4.1e-4 -0.802173,-3.16806 c -0.441194,-1.74249 -0.838487,-3.26561 -0.882872,-3.38477 -0.107019,-0.28732 -0.06802,-0.42266 -0.921066,3.19573 -0.40033,1.69807 -0.749809,3.14595 -0.776624,3.21749 -0.06247,0.1667 -3.289605,0.25028 -3.34255,0.0866 z m 19.454064,-6.0394 1e-6,-6.14773 h 1.841611 1.84161 v 4.65819 4.6582 h 2.494649 2.494647 l -0.03014,1.46511 -0.03014,1.46511 -4.306119,0.0244 -4.306121,0.0245 z m 10.183025,-0.0354 v -6.12902 l 3.276983,0.0418 c 3.626247,0.0463 3.895714,0.0916 5.083034,0.85347 1.096233,0.70345 2.172748,2.34577 2.463227,3.75785 0.16472,0.80076 0.144056,2.20988 -0.04559,3.10916 -0.444914,2.10974 -2.042494,3.78874 -4.119859,4.32983 -0.497911,0.12969 -1.293565,0.16587 -3.647314,0.16587 h -3.010482 z m 5.650494,3.14082 c 0.411931,-0.2128 0.923603,-0.87273 1.122147,-1.44727 0.273332,-0.79097 0.325932,-2.11018 0.116865,-2.93098 -0.38731,-1.52059 -1.10791,-2.1666 -2.416764,-2.1666 h -0.681191 v 3.40699 3.407 l 0.785394,-0.0602 c 0.431963,-0.033 0.915061,-0.12712 1.073549,-0.209 z m -20.82411,-1.7377 -0.154242,-4.94256 -0.06733,-2.57284 h 1.754531 1.754531 l -0.138509,7.5154 z M 26.4846,213.2859 v -2.65408 H 25.672125 24.85965 v -0.43332 -0.43333 h 2.220765 2.220766 v 0.43333 0.43332 H 28.488706 27.67623 v 2.65408 2.65408 H 27.080415 26.4846 Z m 3.683221,-0.43332 v -3.08744 h 0.54165 0.541651 v 1.29996 1.29997 h 1.19163 1.19163 v -1.29997 -1.29996 h 0.54165 0.541651 v 3.08742 3.0874 h -0.541651 -0.54165 v -1.35412 -1.35413 h -1.19163 -1.19163 v 1.35413 1.35412 h -0.541651 -0.54165 z m 6.066483,0 v -3.08744 h 1.94994 1.949941 v 0.43333 0.43332 h -1.408291 -1.40829 v 0.86664 0.86664 h 1.137465 1.137465 v 0.43332 0.43332 h -1.137465 -1.137465 v 0.86664 0.86664 h 1.40829 1.408291 v 0.48749 0.48748 h -1.949941 -1.94994 z"
       id="path826"
       inkscape:connector-curvature="0"
       sodipodi:nodetypes="scscccsccsccsccccccccccccccccccccccccccccccccccccccccccccccccccccccccccccccccccccccccccccccccccccccccccsscscsscsscccccccccsccccccsscccssssccsccscccscccscsccccsccccccccccccccccccsssccscccccsccccccccccccccccccccccccccccccccccccccccccccccccccccccccccccccccccccccccccccccc" />
    <path
       style="fill:#ffffff;fill-opacity:1;stroke-width:0.32754907;stroke-miterlimit:4;stroke-dasharray:none"
       d="m 26.678658,237.4989 c -0.546573,-0.16476 -0.94146,-0.54832 -1.286892,-1.25 -0.607803,-1.23462 -0.543752,-2.88273 0.152403,-3.92152 1.106289,-1.65077 3.556018,-1.28865 4.07829,0.60286 0.124243,0.44997 0.02962,0.55497 -0.502455,0.55754 -0.291461,0.002 -0.361938,-0.0518 -0.46392,-0.35042 -0.33797,-0.98954 -1.326813,-1.34554 -1.936049,-0.69705 -0.406125,0.43231 -0.56057,0.98403 -0.558046,1.99354 0.0034,1.39925 0.397903,2.14062 1.202898,2.26113 0.5081,0.0761 1.042767,-0.27615 1.260448,-0.83031 0.164932,-0.41988 0.182371,-0.43078 0.641907,-0.40137 0.463703,0.0297 0.47109,0.0362 0.402602,0.35523 -0.282306,1.31505 -1.65149,2.08421 -2.991186,1.68037 z m 4.139144,-3.03449 v -3.03324 h 1.94994 1.949941 v 0.43331 0.43332 h -1.467012 -1.435374 v 0.83956 0.8703 h 1.196188 1.164548 v 0.40259 0.40257 h -1.164548 -1.196188 v 0.89739 0.89685 h 1.467013 1.435373 v 0.4604 0.43017 h -1.949941 -1.94994 z m 5.091512,0 v -3.03324 h 0.590288 0.590289 l 1.278404,2.13726 1.278405,2.13727 0.02938,-2.13727 0.02938,-2.13726 h 0.376865 0.376865 v 3.03324 3.03324 l -0.514568,-0.002 -0.514568,-0.002 -1.29996,-2.21554 c -0.714978,-1.21855 -1.377145,-2.21681 -1.421832,-2.21838 v 2.21792 2.22076 h -0.419778 -0.379155 z m 7.041451,0.43331 V 232.2978 H 42.13829 41.325815 v -0.43332 -0.43331 h 2.227306 2.227303 l -0.03362,0.40623 -0.03362,0.40624 -0.785394,0.0318 -0.785391,0.0318 v 2.59518 2.59516 H 43.54659 42.950776 Z m 3.683219,-0.43331 v -3.03324 h 1.95648 1.922868 v 0.40623 0.4365 h -1.473488 -1.408305 v 0.86664 0.86712 h 1.196115 1.164551 v 0.40624 0.37549 h -1.191631 -1.169035 v 0.92081 0.92081 h 1.439861 1.462453 v 0.43332 0.43332 h -1.949941 -1.94994 z m 5.091513,0 v -3.03324 h 1.682595 c 1.807629,0 2.261608,0.0968 2.656657,0.56651 0.293,0.34837 0.454556,1.00966 0.369561,1.51272 -0.07642,0.45238 -0.612889,1.17066 -0.874318,1.17066 -0.231607,0 -0.190446,0.18279 0.336212,1.49301 0.268116,0.66703 0.487484,1.23771 0.487484,1.26818 0,0.0305 -0.240131,0.0554 -0.533627,0.0554 h -0.533627 l -0.441344,-1.14262 c -0.242738,-0.62843 -0.384591,-1.29738 -0.441343,-1.29738 h -0.866638 -0.866641 v 1.19421 1.24579 H 52.21298 51.725497 Z m 3.001545,-0.45452 c 0.542544,-0.18914 0.771435,-0.80483 0.480134,-1.30907 -0.224273,-0.3882 -0.730603,-0.53508 -1.694235,-0.49148 l -0.7744,0.0343 v 0.80234 0.9639 c 0.06891,0.17959 1.499212,0.17058 1.988472,0 z m -28.512902,-4.156 c -0.891743,-0.30657 -1.437121,-1.22975 -1.318446,-2.23178 0.127831,-1.07933 0.99221,-1.85505 2.067047,-1.85505 0.641158,0 1.058761,0.18869 1.546404,0.69876 1.529327,1.59967 -0.175638,4.11667 -2.295005,3.38807 z m -15.175394,-0.21017 c -0.01926,-0.0596 -0.504891,-1.88766 -1.0791571,-4.06238 -0.5742664,-2.17472 -1.2834386,-4.85307 -1.5759386,-5.95188 -0.2924997,-1.0988 -0.5318169,-2.03721 -0.5318169,-2.08535 0,-0.0482 0.7780975,-0.0875 1.7291051,-0.0875 h 1.7291045 l 0.107062,0.40623 c 0.05889,0.22344 0.43183,1.74683 0.828771,3.38532 0.39694,1.63849 0.759956,3.02034 0.806702,3.07077 0.04674,0.0504 0.13591,-0.14456 0.198145,-0.43332 0.06223,-0.28876 0.437008,-1.85341 0.832832,-3.47701 l 0.71968,-2.95199 1.480399,4.1e-4 1.480397,4.1e-4 0.855075,3.38473 c 0.47029,1.8616 0.891924,3.42612 0.936962,3.47672 0.04504,0.0506 0.462978,-1.4728 0.928754,-3.38532 l 0.846865,-3.47721 h 1.435592 c 1.102831,0 1.42404,0.0314 1.385758,0.13541 -0.0595,0.16168 -3.19327,11.99912 -3.19327,12.06219 0,0.024 -0.71904,0.0434 -1.597868,0.0431 l -1.597868,-4.1e-4 -0.802173,-3.16806 c -0.441194,-1.74249 -0.838487,-3.26561 -0.882872,-3.38477 -0.107019,-0.28732 -0.06802,-0.42265 -0.921066,3.19573 -0.40033,1.69808 -0.749809,3.14595 -0.776624,3.21749 -0.06247,0.1667 -3.289605,0.25029 -3.34255,0.0866 z m 19.454065,-6.0394 v -6.14773 h 1.841611 1.841611 v 4.65819 4.6582 h 2.494648 2.494647 l -0.03014,1.46511 -0.03014,1.46511 -4.30612,0.0244 -4.30612,0.0245 z m 10.183024,-0.0354 v -6.12902 l 3.276985,0.0418 c 3.626245,0.0463 3.895712,0.0916 5.083032,0.85347 1.096233,0.70345 2.172748,2.34577 2.463227,3.75785 0.16472,0.80076 0.144056,2.20988 -0.04559,3.10916 -0.444914,2.10974 -2.042494,3.78874 -4.119859,4.32983 -0.497911,0.12969 -1.293565,0.16587 -3.647314,0.16587 h -3.010482 z m 5.650494,3.14082 c 0.411931,-0.2128 0.923603,-0.87273 1.122147,-1.44727 0.273332,-0.79097 0.325932,-2.11018 0.116865,-2.93098 -0.38731,-1.52059 -1.10791,-2.1666 -2.416764,-2.1666 h -0.681191 v 3.40699 3.407 l 0.785394,-0.0602 c 0.431963,-0.033 0.915061,-0.12712 1.073549,-0.209 z M 25.50222,224.972 25.347978,220.02944 25.28065,217.4566 h 1.75453 1.75453 l -0.138508,7.5154 z m 0.98238,-11.6861 v -2.65408 H 25.672125 24.85965 v -0.43332 -0.43333 h 2.220765 2.220767 v 0.43333 0.43332 h -0.812476 -0.812475 v 2.65408 2.65408 H 27.080415 26.4846 Z m 3.683222,-0.43332 v -3.08744 h 0.541649 0.541651 v 1.29996 1.29997 h 1.19163 1.19163 v -1.29997 -1.29996 h 0.541651 0.54165 v 3.08742 3.0874 h -0.54165 -0.541651 v -1.35412 -1.35413 h -1.19163 -1.19163 v 1.35413 1.35412 h -0.541651 -0.541649 z m 6.066482,0 v -3.08744 h 1.94994 1.949941 v 0.43333 0.43332 h -1.408291 -1.40829 v 0.86664 0.86664 h 1.137465 1.137465 v 0.43332 0.43332 h -1.137465 -1.137465 v 0.86664 0.86664 h 1.40829 1.408291 v 0.48749 0.48748 h -1.949941 -1.94994 z"
       id="path826-7"
       inkscape:connector-curvature="0"
       sodipodi:nodetypes="scscccsccsccsccccccccccccccccccccccccccccccccccccccccccccccccccccccccccccccccccccccccccccccccccccccccccsscscsscsscccccccccsccccccsscccssssccsccscccscccscsccccsccccccccccccccccccsssccscccccsccccccccccccccccccccccccccccccccccccccccccccccccccccccccccccccccccccccccccccccc" />
  </g>
</svg>
